<mxfile host="65bd71144e">
    <diagram id="CIKICRUl21MsloA0dM4S" name="Page-1">
        <mxGraphModel dx="1356" dy="560" grid="1" gridSize="10" guides="1" tooltips="1" connect="1" arrows="1" fold="1" page="1" pageScale="1" pageWidth="850" pageHeight="1100" math="0" shadow="0">
            <root>
                <mxCell id="0"/>
                <mxCell id="1" parent="0"/>
                <mxCell id="2" value="" style="shape=image;verticalLabelPosition=bottom;labelBackgroundColor=default;verticalAlign=top;aspect=fixed;imageAspect=0;image=data:image/jpeg,/9j/4AAQSkZJRgABAQAAAQABAAD/2wCEAAYGBgYHBgcICAcKCwoLCg8ODAwODxYQERAREBYiFRkVFRkVIh4kHhweJB42KiYmKjY+NDI0PkxERExfWl98fKcBBgYGBgcGBwgIBwoLCgsKDw4MDA4PFhAREBEQFiIVGRUVGRUiHiQeHB4kHjYqJiYqNj40MjQ+TERETF9aX3x8p//CABEIAZwGQAMBIgACEQEDEQH/xAAuAAADAQEBAAAAAAAAAAAAAAAAAQIDBAUBAQEBAQAAAAAAAAAAAAAAAAABAgP/2gAMAwEAAhADEAAAAvYAgAAEMQCaFFwaAACHLQNMGmCaJqaGJiaCKTGACYSJjABNDmpGDEAKbgppiYCYGemdgqQNMljAAAAi8zRgAAReZoADTCLzLAAAM9MywBiBxcFACaCpqQpMYATUDqaAZCjTOqqWMCDPTOqYxDBRpBQA00EXJQIAcTLQ6mgADPSQqaoEFSAqiwAAAmpoBghhncWMAAkmpoGADCGmNgABKpFAEtA00UIGAJNFgAAKakoYUACaBoAAAQo0yNSGNNDQhuWMljEA4obkKEE1FjQAgJaChAwQ4qDQQMQEVJTTAABBFxRQgYgTiihAxA4qDQTGIHlpmaksbkHncGggYAZa5miAYmGemZbmgACbgdRYABNwFTQxMM9MymAwAy1yLYA0Di8ywBkUEXmWAAELPSKqkwAhzUU2mAAlUk6Z2MTAAi89AaYAGd52MQMAipsGAAEVNDAAAQIoAkAacFMYACTk0EwAFNwlMFbAE0AAAAmgz0gYwSnOzYy0GyRREadNxpmxSqEUEq0Z3FgqQlaIKBFBJQTOkDKCSkSrgYwSpkOgzZZBYQ6DKihFBBYTOkFKglsJnSBlhBYROuZQwSsInXMpUyCwmNYApkgxRtAm6ILZnO0EumQWE57QDbJKCc9oAsILCI2zG2yVYRG2YnTMnoiJ1kTdEFhM6SS2yHQSUGbpkLQM3aJasSoJKDGnZDpmbsMbLJKCSwyoYigltkKxEULBaJz1lBtkuggpAUEukSrkCgtAoAAAAAmgi8ywDPTB2LTHopRdRx49/Ludo1z1npz9FAEABnc0AAAEgFE851CYouDQTBNBFyMGJgABF56AAAImpoYmAQVzc8nqADEwz0gsTAAMtcjRgAAZa5GjAAAi4KaYmwI0zHSYDBRcDpAwAz0zLaYABnpmW0wADPTMtpgBBlrnVgAATGuRdTQABNSAAAAAKpsTAEBFRoIaGIJ0zsGAAEVNA0wBCqKKAAAScliATBTSSmmoAE1JTTAAUXCWwVgAAAIaAAAz0yTRoVKinLUKponn6ctTdNZsXjdRzd3PD6MtSKiwAAQSMM8ejI6HLDPSC2gaQOLzLQGevF1GiAi5oaAACKmhgD8z0w8mu/mO4AAAi8zRoGJhneZoJjEDzvI2EinLHnUGgmNoHneZbljEQ89M6ppjADPTMtoGAGWmZo0DIoeWmZoJjADPTMsACWPO4G0xksaJKc0CYCaFedjSAGGemegCYAGWmeg3IUSE6ZagmCGEuaKAAkCWkpgoAEXCaAKABFwltNRMFGmaaCasAAQAAAAAZa5jKCVYSUiG6IdZjOfcVF1HP1kY3YY2USUEBzHQsugksIWiIWkjKCFYQpY3TMOfuCHYZWUQWGbsMS+U6K5ekpWEZdEDLCCwmdJArzjvLCI4+o1z35Ctsugzx28w9RVRBbM52zAqiCwidYEWGZqGS2gktkLQInbIbbILCJ1zGWGZbM43zB0yCwidcxlBKsIjaBFhC0DNayRTogtma0khmhDpkFozpaEqwgsMqLILDM0DDQpENrJTMxiCsIdMhWgVhDoInWBlMkoJm0BQS2E56yDoKQKAAAAAABnpmWAAAJoVTQc/QjPI1KuLAAACKmgAFz7+cX246GgAABFSWgHLDHl7eI72mAAAE1noAAAEJ4nP6HN0jACLg0AAAIuDTLRgALLbMtgAARcFgxMAz0gpgCaCagpjEMFGmZTTACDLXOraYABnpmWDAAMtcjRpgAGWuRbTAAM9MymAABNSDAAATQVNgAABnpFgmgEybiwaYJhFTQAgAJqaG0DAEqkoAGApqUsBQAJqUoGqGCmoSwFYAAAAAAABnpmWAAAJom4sQw49d0Tc0AAAEVLGALn6Q4+looAAQTUFgAATy9kGHQMYAJoi4sYAAENMmdWJgGemZqIGAGemRqJjEDzuC2gYmGemRsIGAEXmaCYJoJrMtpjEDy0gppgAGemRo0DBDy0yNXLGJijTI0aBiB5aZGjTAQPO8zQTAEOSSmmMAJqRXFjFJZNEXnoE0CYEXFjEwBEuaGAABLTGADQNCSmhWAEXCWAoAEXCW0KwBReaaNCsAAAAAAABZ6QDoILCC0RRRKrITxmzqpXLJQSqDNlElBKvnNBWIoJKCI1zKVhK0RCOQ665ewkoJKDOloQtEQ6DIMLOh3yS62tTNawBYSWERrBGPZ553qwiNsSx0SWERtmUUyC+YqK0GrZmtJJmdAdMgsInXMCwgrgO2FYy8xmHSRG+SEcmi9hTIjbMCwksM51gT5+c9Apkc2vMl9OdK514zRVuQXRmaImdEZ26M3YQWGNqxFAhhnSsmbCSwysoTYSWjNtoigkoMlrBYqAAM9JKGCGCjSRjBDBRpA20WAoAAAAAAKNMyxMAATCaiwTBcnXxnVcWAAJolzQAHNy9XEnpvDdaABAKNMy2AJonh9DhNOvj7ATBDCLihiABHJvw+kmE5JfRACLzNAAGBnpmX5fq8Z2EWLm6sjj9Lz/QAAM9MzRpkcm2Z0zjsaAE+fjqX2RoU0wADLXMsAXL2chsa5FtcourLoFlrznJrpJ2ABlrkaAAAGWsEc+vOd9AT5vo+edumWxz8umJ6QA649TYzg3TwNq5ukYAJhncaCAASI0z0GDAAipoaAbQS0ygAAFNSlDFAAmpLAAAIuUoBQAIqUsBWAAAAAAAAZ6ZliYAAmibiwiw87Xr5LOm8rloz0EARUsYAuPtQJyWCAyovO4NAATBeb6eRy98WBx9YwRFxYAAmHPvFGD6GAmGF4HWAMTDLXIObsoaAz5eriOvbl6hkUPO8zUQVz7hWOmRqIH5Hr8h2ZaZmggYgeWmZoJjiged5l4bs5eoA5unI5OjdgCHk0W0wBii4K5exGGrCct8zQTCaBxUBaZi9WLi7pI1mwAAAz0zoaGJgZ3GhFgMlk1NAANSxVNFAAAJOUsBRMCKk0AAAIuCxMBoIvNNAFYAAAAAgAAi4BsEqBKgi5oAATCMdgz1pCGGdKhDBDCZuRlI4+mdRRpAygkoJnREFUc+1BJQZWrILDMsMyqIdhBbOe9YGrCHQTntAygmdQiNsxlycPbl0kRtkUUEFsznbIooJKQo15DLunQlWERtkUUElhEbZg6CSmRG2aMoWOXqQRvkDpkGgZzvmE0yVchGsIOmsLQJjWSKpkFhJaM7KJKCUwxs0SHQslozooRQSrDGykQxUNkMaDBRoEqlKaBiAi4NHItEsedSluQokKzqTQkLGKAAmCAAAIuCmmAAJom4sAAEE3z7jEAAZ0uU7DDcABTWZqmgTQRcliYBkazhuK5oEIZFmdzQ04Kx5qMfRVFAACHOOxYAABD4Tq25ukYgeemZbTAAM9MjRpgCKyys2ABNBlrBoJgmCz1yLYDAFnrkaAwBBnpmW0wAFnpmXUsbTFncFMBJyONMzRpgAE1BVJgACaFWdDAAAy1z0BgABnc0MAGmRUUNMEwJcssAYAk5SwFAQ4qC2mAA4qSmmAAReaW01GAAACGgAAIuCnNAACaJqaGIAA5lsi64Mz0cOXU5tO3QGAAE8nZmLXkZ0kscPE6Dlk0x6diSpFcUCYcZ2Sck7bnDXcGegENMoAADnvXmOpcyOnmepzdG2ZqgAAed5mgA+PrkrPm0OkjA34F6Ip2yNHIUgDPTI1EDEDzvM1JCxA8tMzQTGIDPTI0AGIDPTI0aYwQRUFtARaHnpmaNMAAmpKaBkoc0ibixgAAZ6RYwAAM7mhgA0yKihtMACGAwBuWE1JYAJoIqSwBgBFwW0wACLgoGMAABDQAAAE1AVFDSBiQrihiBkgqiiiUWooQgsSG5BxUFxTOVdYch1ojQYhhKuSaGSUEq0ZWUJVmURsZOmS7CCwidYG6CCwidczPVecde8bGannO1WEFhGHViRewSUE57cZ1ToEFhEbZDLCCwhaZlKwg0DOdsxlBK0REbZjKZC0DON8kboWSgiNZROxczQM43zQdtc3aJz0kTpkOmQWjOiySgkoM6VklMkYZWrRDay2GdKkGmAgBMolqyRBCNSAsgLgk1JCnmFw5NSRacBebhNHDNAFBA0AAAAE1A3NAAABFxYABjsjiOT0E34+7Jebfm7hAFJoAAiuE7zlDori7SZXKd4mAmJNCqaAAMtUcmeHpDdcoujPclplADAFFwaCBgBlrkYVpsJknM46immCYLLXM0aBgC8/0czQQcl9APLXM5eumLm6pPN77ksAGAZ6ZGgADQZa5lgwADLXI0EwAFnrkaiYAgiszZJgMFNyFJgMEmibixgAAZ6Z6AAABnpnog0KwCKixgwAJaYwAAJTSUMVDQ5cGgmAMUXmmjkWiaHncFgDAGgAAAAACakVTQAAARc0AIIsODuVBw96OPqMTdCLQAALPSTnx36CgRxlbltMQ0CaFUWAAJhhtFhlqHNroEtMoAYgIuDQQNAGemZo0wAMc+rMpgAIed5mwgYgIvM0JY2ged5GomDQGemRqIKEDy0yNRAwAz0zLaYABlriW0xgBlrkWMEMCNILAAAJqQqaGAE1JNxYwABE1FjEwAM9IpG01ADO4tG0KwCQCgAAJTSWAoAEUigBgCi8ywAaCoqSwBgAAAAAhiBzSIvKi1IUKQvOi1IUQBWdJZAtEhUCNCQolFQ5NHIUkgm4NCWMkGgJuWAAKkZaKiSwh0GTp0inEFomNZAsILCJ1zGWEFhEbZjKZJQRG2ZaoJLRM6ZjKZBYRG2ZQwSsIjbIooILZnG+YFshaBnG0ILQXNayTltkaFMh0yM980FoLm7CZ0kToSFoELREuhUUEq0Z3NiKCRhnc2IYJgkXLKEKxAqikokLJAJDR5hoZsqUFuBbJBxUGpAaGbKhylki0Sk0gk2IDQBQAAAAAEABnpFgACAi4sAATRNTQwAAFNSUAAARcFtMQARcFgAAE1IqiwAAAz0zsaAGglzRQgYAouSwBiAzvM1aBoAz0zNAAADPTM0aBoAy1zLaYAh5aZmgAABnpmaAAAPLTM0aBpgs9cjQAJpEZ6wXSYwAz0zLABphnpmW0wACLgdSxgAmibz0BgCaIuLAAACLi0YCgBFTSNpqAEtCUArECBJQCsQEtFgAAE1BYMQ0EXCW0xgKAAAAIYmCaIvPQE0ABF52MAACXLKABMFFwWAAARcFtAABFwU0wACakm4sAAAM7iwAAAhplAA0BnpmagAAKLzNQABDy0zNGgARWd5JsSLRLHneRqSxkhWV5pq5asTDPTE1csYmGemRqJjEDx1yTRoVoAz0yNKljEDy0zTQQraYZ3JQmMAIqQqLGJggI0z0BpggM9MtBgAARcWjAUAIqaRtCsQQ0JYCsQJNI+Hp4126cIO1NJQCsAUaZpo0KxMWekJYIsBQAAAAAAEIjTGk0UC2pBXlaWpFsgAQlki2QFZuDYzDQzDTNI2ICzNlSSW4ZRDKSQVFDQhiZncWAwktGdMBWEOgnPWQNAzLCJ1gZQQFEzrmUUElhE65FNhJTIz24jn9Pk7SFYRG2aUrFhaBEbZjKCHYTGuaMtmM3Jee+JRQSWLE6YJqtMlsVkZ6JGULLpkTrAKqM3QTOkkt0Sr5DLtz2M9JsFSEMMtItG5ldDi0Ta87KJFpwCvNpoZhoZgOQ1ICyApSE6AsTbLk8xPWfJ0FkBeVQbEBZmy4cGpAagKAAACaBoBNGemeiACrPPU5+lUjGlCLEnKWAoAEXmWMAAM7yNhAxMIuQqaAAEBFxYGeR0oDPTj2NwyNVzdRBhoanJ1izwDszvzj0jls6E0Txz0G7WRoDIyjM7NPM9MYIM9MzQAOPs88vlrrN+Tt4jo1AM9Mk1SFblhnpkGWfUO8aM7zR0Z65mPVz9RlybpN+aqWOjn3OU0pNoJXbn6eYibzOuhnJ18/SGemZTTGJhFwBjidGGPpDHzj18v0yxMADPTPQMN8ysGGt5aJQhaEEuaQwMzPTpslzQ8pyDL0OY6Kx2GwUAFhvknL6HB3jBKReaaNA0xSLzTQEWAoAAAJoAATRnpnogAvLJ1HN0xojx1S8nZzdRM1KWAoAHN08KduMperj7OcmOzjO3h7eQ2wYdk1IVNAACaIuLOe6xOnDfI5uudQ5erM0AOTDukndhy9Konk7IKw3CkI499MjXl60DAzjfMz6YsAQZaZmxIVFIU3ibSBZIVjpmmgmo0Dw24zLp1saYYVrkmmW0K6AnPbMsAixiz1zSqBWmgy2yS4uV5u2LDPTMppg0wi4MI6qM9QFwehkRtNg0xDkz1y1Hw92BzPrkd8fSltNWAZ3NJx9nD6CtMM6TR5vzV7suak9FpGgqVDQuffz06OuLUADPTNLaFaaHFQmgBYCgAAAgAAE0Za50lEpcsewOLuypL59kc3ZAXCRqQLZKLxuENoa0SipJNEAIC5SKrOhuUUSE3nQxMADPSLAABhmUAUGbsInWQVhC0DONoGrCDQM52gC2QUEZ75JRTWVYRntklFCyWE57ZoFNYLCM98kpWLDsIjaECwgsXON80C2uZoGcb5oyglaBEbZgWEOxYjWUTbWSglWiaVCYAqRnpFgIGII0ytLIa04CbhpbzDR5sV5MxrULrMG82aY2FYas4ejULqAuZwI1z6TUgLIRebzNyAsgLzeZsSGwCgAACAAABBnpnogAoAQ00YCgARcJYxUwFFwWAAATcg0wGCTQqmgABMM7iwAAAzuLGAABA0U0wTQZ3JYAABnpmaAAAEXBYAABlrkaNMABZa5GgMAAy1yTQBQAM9MjRpgAGemSagK00GemZbTAAM9ciwBgBnpmWwAAJqChMYATUhU0AAAibz0AAADPTPQYAAE1FgAAwippGDUAIqaRgAAS0xsFGBICUACYKLgsAAAz0gtMLGlAAQAAAAIDLXPRABQESMRtCtAEaZpbBQEEXBYAABNSOpYMQAE1FgACaIuLAAACKmhgAAShFgAAKaksaAAM9MjUQMTDPTI1AAAMtMzQAYgMtM00aFYAZ6ZJoAoAGWuZYAxMMtck1E1aaDLXI0csYgeemZYAxMIaLAGALPXEtzQwAmpCosAABE3noAMQBnpnoMAACLiwaYAGdxaNpqAEVNJQmoASDRsFABJpKAABVNwlAKwAz0zSwD//xAAC/9oADAMBAAIAAwAAACEEAQzT5LJ5apboC65TpL7wLDT6u2G7HFP32aEEdWlMEEX01UW0HUU2lPU0MHHGEVXlXt/v8+n1kw01THH4ESSTBaATZyQAzTgADrIFSzwTI7JL7r5a4IJLJL6YIYj7LM9YNNZf/rsNJ23o0FFUlEk3En2GkkDUEHW1BQ2wHdmH8FUm2DH12kHqQTiAwIBQahyLDy4gCeCFTwhRo4ecXwAYJK5ZaIIIbKa7ZqpLKbIKJJ++rO2o1HYn1wk1AmlBX1iw3jTw4wgQxDDj3zRCjTzRxiT4obLxKb6rM75O+O/+eP8Ad8AAUu+7IRP288o24iyKA+IV6QhBKBFKJBT9JDJ9/hBV19991F1xplNMN95pd5p39VtUpRgEMoQgYY0cmgIWoEuE8Www7oMSoA/gwAEc8XmsWSQC0K6KCGyamSqSmeVcWZwy9R5xxyh5O7DKFtcUtNB34xRw1x4sJYR18U1Y45sUcAIUwc8M6ksqcweQsDk8XE8XoQjKAE888SWaiiGCICuqCOOOW+C6qiSuGCyS+OqiXabvOCDqwJE4FoVRwoMkINogow4soMYcQIwgYIeoGac4Se+3KaXT7LTnn7TrTj/zc8c4kG08uCW+O8gKIxe0IOcdiAU4KBBSh1+BR/ZRU19J5hZlNVxxxJPQoRs4B0oR0IAA09880QQFIsIcWoQU8MKsU28gvU4D4wr+888kISW+eqiGW+qmrzq8ki91G2gU+BBWIw6FBWbHKhZwFx15VFxNIgxkElUMJkAMEoMIYkYEUMiU4Y4EeI00M8GMsLsAX88XsAvs888wA6iySCKBKSaaKSi+O+WWOOKOKWuBqyi+COqWy2RWAESYUo4hGEc20MvGcC0AqiMnKYCaUeiuKu8O62W2G2z/AH8xz3z+920590PKAQYnPMikLgrFEuOwgDJoVQjmcRjZfyrTvcQmvfiQSqOJPWurSVFIbLMbNfOFPOBqHPKLigAlgUGKALmBPHAAgBP8NNkPOwACwgAEIQRnvFtvkbiOJvCrhnjgERuhxKoELgiSvSQqnTuEbvFFMFUADWGHSLPcCJEKOKJffEDDnmtklbJkLLmCtuCIgNBxGPgMMiNDwgAADfapnkhjjjtrqsvtsrlkvnhjgqovuompsImjlxsohiuphLBIBPPEJJCMRPNrHMDOI6klvvgvivk7tlssq0mk7Lpz437qj6//AMPABDzyr6pYoAyICCZzhJDRIwxyJ0DZS3YHloEGb01LnH6DFhBBghDTQDzgTiiCiyiCCjSDS6AziIAyqABZSo5yxZQCfCAIjwqgBeqAARzhZqJbY7CqRz6gDKzD7Cla7ya7GBYDwpjV5Dg7JipIjKxDKTzBwBJgDDQyxCAi1FKzywCTT5TiYADZSg6hSZyhYBRrTDCgALokDTww6p7ZbopI5p4a5aiwrqKYZ57Z7q6Ka6JKqpYYJJZY7ZLIaSyYyCIRS4JDMYquK5fKp4KoLpb5ao7/AKi7b/bKP/zjHTnzWif7AMcoUme8qqAA/G86U8KMo2KI+24Q68c2cAqMACpt6oQ+sAyO9SZlwUgEc06QMWY80ckuew+kQqqEqiAwrsA+QAKAA/gUCI4DkYec8cwgAE28AiEsWkkCY4aYMGo0KOAAegye8M2CY2ow6w0CAEuSsW4gmcAQ80sA4As8+wMWW4i+CW28ueIAHgA7MA2EA/U8KMA8gUYU88gEMQGe2+KOzu+eOEegU2aOqmuWmCG4q2a2e6u+e+O6emqKSSMQ2s4yqS7QUOUmTyuKH/7WCCOyuCGrHS+DTzfnPbgAyaI3+TXf0sAAEoiAeywUaAAC88Go8+WAWOAAGcsqMA6UIukc6EAiscaoEa44uU8YsQyAcwcQC8oeoASG0qKgUCc8rAOXI8nQMjwAqQwo4kbp8wAEIQqU8OAAOAQe48Qs9ygAW6QgW88+8s2AAuSGai2PMam6uLoIGoYicMbkcIo8bUgacQS6ICmocu08bU8XkMnwAvwEDEAjkI7FcoAAAMHYa3QAb4AeKOaSqiaqCCWaOG2GeqeiqiO6mSCmua+qcLQwGskPDxHP8zSO3eq2auO6yW2WS3ubT6inLHXBR7uQjjNfL7nHwwoUs0/oiPw8v88GySWc4SOBKysUuBRaUAKcUSsMOdFy0lZM0rUssUgAwsV8Y/UgoowSyISqxC+Q+2wg7UITpp7h1rwwXVE3vQXHMMAUoUjg4HMwr88rY8ucMeqBCGVWCVEWQQCGYmwAia0OUEis4/IQOMkLs8YMY7kUX4AWyoCGwmiog+Eg34EnoQ3Utbw0v8sXsUPRMcAcoUnEgPz7b6+nqCuiq2KmuCa2WuCGC2Ke6qeiO6OXaSPG2TYgHe2r/MrqebHTD3iP6+qKOWqSybau/vr/AOx067973zix58w18/OIPKDL6AGzHH8ILnPIPMLggGqjuvgCNqFGvPPgAAtPOqAPuHHwCAuPL/FLKNJnBHpPKnHPgvLnvOPlPivMl2jq1/65pKx2zzz205AHNAHJwBM7HI4DPgNOJpaQgFsuAFsABvMOtPFjGNuMLnDG5PJ0PBsGI3FMDHOgHKlAJssMqkJkuKtkPIqMO6PPyBG4lP1/o/gE/f/EAAL/2gAMAwEAAgADAAAAELwxz14LR+zwRbS7ZU+Z+d2W+5bM6qZ40F63Z/zK6wN/XlDTnRWtiQhI4pA7sMakFaBGzphzhGWG8aN8YCfh+3w5N+3AuhlihlrnME17457NJLpk937QU0Wb/QUyRzYSKHzDOaDB0POarqRgMnDTghbivItiD9HWvLI8TNdCmPPxNJQK2IIiQCdW9x16PrtMtiNghGvtbolw9x4MvbE1Zt8Za5Q8/eQ/TcXWZenaThWVlLKZNvTgmUko8rgwgg8sr29Gw04K1c684i9jz76x373iw6CKIjwDNOM8IDfYYdRSgXIfaVajO17yK/P7xZ3SyT0Q0uc/si4w0W5wHy0FeUJwWqPeiLYFMTFNd0HenIYuT2HKZYJWdcYU4XYxRzY91K2zOgrHsuTsoOsgYjeRXYT5OChq85I42/ScwYUxSURcn+Rv9VgkmssZi+fDKXoJ/wCSrQfcSQMAE/HSNRGWGx+1iWkFmvVONWGE9+CM8CJ43palL4mp5dz0X30MapY5KbLS9P8ANpqJNqhZ9p9wgJhyJNyFopMgrlMsnCPLKnC0vzN2PkORZ6hBCAlimla7rmAbVYPfIhBxxwdFJXVpehBDlNqidBx1b4fLw0VzzzbhnyYLHNfeUz7jZCWFKypGv0TtXiBqItmUZmoZi037ltDxUeBsCpVzlgVFpdbAFjxZJtbbn34mKk+iRKGlSytA9NBZ3Q5h0t93LhVNUAVD/JCKtlXXtC+R7H0OT5wAh2snEI6Qg6gBTx8f1UbpImlBLR9XNZtdpzZVhvd9hdfzffwu+FuCVG+9G29Gh1Bt7+swmSaIShNelGA9JEtEm+nP1VpdhFuNBoVJY9W9bT8j/uve9z3wGHFwjMODQkzVkfww2c0lN83M8ZN8JEdFB/xJTR1+BhSjtRV8ioPPZdfyxTvZnnebb0GWdLSyFKOH/SzfzJx2AKUxBr7c1pIFPFabvIHWNGxd6I9ndjhhv1pWLDdXVLbXXD8W6VSSIGGdyubA1xtICAJj9r5Vo/nNHhpFlMTSNgEH1fzAJKe2CWFqq3MITTSfCPNcr9w7z46v5e5RrkwGPv8ARSRELk6a86d3cPyvFipelnFjvHhpcAQQTMvW02ni0utU/wC1H+mIqUGErmlqFkLmEJO3SXRy02bW0wsH78mIQ1r/AJTrycOTyERBQN4ktFE9NXV0gBRREYtyMlxdm0QR1hCZxBV/LVxV5N/rBPL1LHlXX5brX1OD1Ti4GG9+6B+eFq+mraXttDpZnJNmRFqpRytBLlxibPNzzP133ynPgLpEXb82SNOe0STYGalohBFdnttdtRNPIjXpDD0ezZjqRhjZZejh3HxfKZf3A9bG1/cvDof5uvHghPqZJy9RCksMTPbXTzUrPw3/AMM+xJ7yAqtNqnGl9tuoMBCdac5QEZoobVEGLDbeDzkGSZzvPKGSftCSgZQgabLbbrfUmQSLwzA/7Gx8CX/3LXRIAxJRrKaQCQOOVBWJN4bWXLdQTTcSeTLBbcTXdaTXf8QA02zS6Vw1f47US4QR06Nz3dw/jwx5tqe82l8xBbvbBOybT1ZUG8SO7UofbXR0T43XH2aPz/RwiOgoIgucogMgiTvnJkUTSUcwQ4wB/wBie9VcfEfOC/PXksPEvXfM9M0dfM9Heu4cvC3f1uPCEFdelaHXYENRPcAEcmkUGxPVB/8AprCliSUy+ZuKYWDuSyui1hdFNTwd02QUrwhM1j4vHoElHjVVCxjYTf8AuZQkTduQUhdRNbYj45A21OMSditO+W2IHtefdDWqnWDsJRTMG/QeieRZgtFLraJfffeSQRb6AzJL9iPy/ew2Q71Qf3Vf7wX7+j4+uz3T34O/WB3aM5TBxcAUXpXZBVSpbyCx4g93JS0Xox7M4oRsIYsvVgqRniLnostoe6TbRSQ3F2zI66B09Rw9xwmV/wBGW9ukMsI+tpOO6336Xmf+1gVGe1HSEFSPkVHmKcdsMureOh3PnCtshuoULYE6pW47HIa3p6U4rmenX0FU8d7Tt6KV5ITzBw1mZ9kEMGn62V7FFoQ06XHaXESGkCR/W1/T745E9rWY3DisTDhj1RpBKZHD/wAltUsNd92fjRgmmZz9VNo9NNBVhffestGCVCfc1tELDxpCJtPfySSwXHdbDEvL9u2wb6mTX9NBidxioZ/QJN+WC77EdLJcCxQDpA3+ZmCpT7N/bpiOl3OZly1lxhJVd/bamhaad/8A1f0xLw/ddveXkRzs8M62HR3O90qR8L76N/1T5WKGvdqajtvSkqemxDa0ST6UD5/F3jdumdjpZu+bunYkgTlmJ8YeWUf45kkxUQtMDUMZJJSZaaf4Q4jdcjbQgQSiSdkSZ2fczMG6j1xKOjbufMK2WVjSI8kOloUeLUPxMJwQbq/ZhuGpSdtSXgJHuCRSaVaszhpVrhc5zIt3/wDN1H/G3GXc/fStMm8cw9+pv8CsMR+eHXUS811VWJblTJuRO8w+e13ekgsbQpBw6ANBAakU+xKrkUPV3p3EFGik7OMfE55WefH8veGaIEMGUetUOvxsOne/j+tYsNqMPm44mbtZoMsUEa41DL8hd/A0dlmekTPQi8Jz86EIIkopWR4OkDvw4Ff/xAApEQABBAEDBAICAwEBAAAAAAABABARMUECICEwQFFxMmEDgRNCUBIi/9oACAECAQE/ABtHbl8OKLhw4sOLDhG2FhG202Pbiw4sbzbDYXNue5HbnD4cUXDi3FhxaLBG2FhGywse3FhxY3BFhsLmz0cdmGGj/wA/9EwjoIAOCgJMIfh0/wAg0EknK1gDXqAoF56xeTCksKLgqSpKB5UsGkoWiSpKFj2iTJUlAmQiTJUlAmR7UlhYcWFKlAqVKFuHlp+mJ5LypUovjs9NsNGsgQCVr406dEyQZKGqNQIwV+P8n4z/AC/kGkjVBLagBEGZHYHHp8OC4cWHFhxaNsLHtGywsI2WFj24sOLHt9NhxYRvcXNlz3ItgSMvoIH4fyjJhiDE46IcbC+NwaChYUKEByiCwt9NhEGVygOQ0IWPbiw4se3FuLcbC5suevhxvF7ZaSp6sqUSpUrClhRUsFKlC1KlAmQpKk+UCfKkqShMhSfKk+UCZUlSfKBMj24sNJQsKVJQsOCZUsCpU/QUonmlKn6RPJU/SlHZx4X6X6XGzhuNnC4XG4X3WHFFw4txYcW4sOLDix7cWH02HFhxY3lzlz3IvusOKLhxbiw4txYcWHFh9NhxYcWHF7hYRtzbnsvO8Xu46QhSpQ5RUqXlf0J+3FFSpKkuFKkoEyFJUlA8hSVJQmQpKkoWpXKEyFJXK0kyEW02FKlCw0rSiW48L9MES5PJ7LhcLhcLjcLG4bhvFo3u/qFDCi4YrTaLafkGCyGhZcWwQt9NhFtNj24sKDbBxbQhaNucueyG8WN0g8I9EOEbO7ClhRcPptGZbTagrlCwwQtxYcWHFhFtNhxYcW4sIsCjZc2XPZDeLHX4xtO7ClSVJguCpUoEqSpQtSpKBMhpKEyESpKEyFJUlAmQpKkofIMCgTKlShMhpK02FKlAqXJc2uPG7jbwuH4fhcIRvFjeeqbO7Dhw4fTbFCw4sPpsOLD6fkHFhxYcWOlqvvBY346p3Y3BwoKhabcDkKFCA5cWFBUFCwoUFafkHFuLD6YkON5vvBa89nwuNuFKlYLgqVKBKkqStNhxMhSVJ8oWpKkoEypUlAmQpKkoHkPptpQPIUqUDyFKlAr9N+kdxjwuFwuFwuFx2YR3Y7PDii4cPpt9Nhxbiw4t9NhxYcWH02N5/wAA9kEd2HwXDi3024txbiwoYAyoYW4txYcWHFjYb/wDfb8Nh8FwpKkoTKlSVpPIUsLCkqShbi1JUnygTNqSpKBMqSpKBMqSpQPIcWFP0FP0EPQ2G2ELhcMY28dqbO412Bw+HFFxlxb6bDi302FLabDi3024txYfT8h7cW/hG+pgdQbwjZ3Y7Dw+HFFxlxbi3Fh9PyD6bCgsLD6bfTbi302HFjYbLncXx1B0NVuXxshRtO44fD4KlTsFuHFvp+QaVpPIUlSUDypUoEy0oW4PLhxsNlcLhHrgIjZHR1Xux2Bw+HwXGdwtw+m3FuLcW4t9NuLG83/gG92HHVL4fBcZcOHFvptxaAbTbi3FuLDiw4tFzblz18dM49Ph8Fx2GHwXGXFuCZUsJlpQtxalShalSgWlA8qWFhSp+kCPC4YIubbhGHjZDRwoHlR9vH2FhQoUKFChRvOHw+C47DDii4z6cZ9OHFuLfTb6bcOLcWHFuEbLm3PUxuwemcPhxns8OKLjLjPpw4txbi3024txYcW+n5D3vN9THU8t/8QAJREAAQQCAgICAwEBAAAAAAAAAQAQETECISBBMEBxgTJRYRJC/9oACAEDAQE/AOJ69rt+w5cuac1wDGkKY0XNFzRc0hTihxNIOKDj2T64ft+w5py5pzXI0UKDGi5ouaKDFzRQoMXKDig45d+mWncKdrpHIxKGwHgeSFAaAoCgSoCgLsKGICgKAiBDmmgIhoCIEFACFARAgoAQFCyotCNFQFCI0VChEKFChBQjwDinj+qD+1H9KA/pb7UeLa34C0gIDZKsLIZD/A6lgb8h4B++RpzTmi5pBjRQpjRQoNlRc0Xyo/Dmi5ooMeAcU4cdsfUyriZ/3iwIryHgH7aVKlSi5ppWR0XNIHSlGihQYnRQKlGi5ouaPwgx5HgKcU4cdsfUyrmBzhRyhQEAoUKNqGjYQCgIqFAWQ0oCgI0VAUD9IgQgFARGigNKEQIpABQERoqFCI0WhECCoUI0WhQFAUBEKFChCrX2vtCrb7QX2vtD5eG2tvvnvka5Hynn2/Ycuac0XNOaKFMaKDZUXL5UfhzR4BjwFOKcezlXpngH7fsOVKlGnNFydOaKDGigVKNFzRc0XNHwmkKDinHs5Vy34i0IoU4aF/0FDdhQiAiAoYqAoCIEFQFARpQFAUCC0BGioChGigoCIEFQoRoqFCI0VChGkA0KNWoRGrQGgoUIDVtHI+Da2tttbW+WVHkeRQcuVjQ5D8n7Dl8qQbKi5ov05p8qfIafKj8OaPI0umNIUHFOOJ9Q0eAY8iK4GnKx0A4ftyRIcuaQY00o0XNOac0+R0+X4n4c0XNFzRQY0saDinHsmjwHAc4KNcBXKNqAoUByoUBEBQFARAhQFA/SIEUoCgIjShaRAgqAoCIEKAoCyoqAoCyAhQFCIEFQoCyAgqAoCI0g0IUFC+0AYtb/AG+1tt8ttvlvmaKFec1wFOH75Fy+VPlRc0XNOafKi+VOaLmi5pBxT414D6ho+Uua4CnEP3x0i5aVkdOaLmi5pyRDmi+VOaLmnPAU4r3DSEwPR2toTC3+1vh2oULsciFAUBZAQoY0XNFoCIEUoCgIgQ0BZAQoULIaKgKFkNFQoRGjtR/VCIULbCuQn9ra2tra2t+maQocu/CeApw/bmw5cvlRfKi5ouac05ovlTmigxoueArkPaFOH78o5dv2ORfKnypzRfKi5pzTmnyooMac1wFOHHtA65dtvxhx28bt+xwhQjTQiNKAoCIEKFCIEOQIKgKB+kQIpQFCIEKAoCIEKFARGioUIjVqFC++AocNrfPa36YoOH79AP25sOenyp8qc0+VFzRc0+VOac0+VFyg4pw48PfhPgxoOH7c+UP25sOenyp8qfKny/EuaLmnypzT5UXyouaPAUHDjl2/fIufBjXLtypU8Noch2/b9hQxsNCI0+VNARGlAUBZfiXI0oChZUoULIac05DQjSAUIh9oUFtbQnnPgJ4z4ca5d8j4hZft+w5ciXNOXz/Euac05pdMXypzRc0g4pxXoDyFY0/b9h8qc8By7L9ubDmw5c05ppWX4lydOacuac05pzSFBxThxy75EoMfEUK+37aUbDnj9L65iy/b9hoR6UKEXypQFAWQEPlTQjShQjShQiFChEaUKEaKhR/URq22jMFCg4pxLjhLTul9L6cn+ITO2lTtSpU0p5419v25sOfQ7fsOevly+VPlT5U+VPlTlzTmlDGigxooUGKFMfex7+X7c9en2/Yc2HPXyHyp8qfKnNPnT5U5fKny/EuaQoMUKY+sem//xAA2EAABAgQEBQMEAgMBAAIDAQABAAIDERIgITEyURAiQWFxBBNCMFJygSMzFENikaGxJEBTgv/aAAgBAQABPwL6fyFxQy+obih9R2V/yNz8r2/Lzd8hc74+bomk3P0lC12kpuQtfpPhNyFsTQ7whkLYv9bvF0X+t3i6Jocha7SUMha6rtJDK05JukXNuHW7rcbnZIXC05IXD63yFxTcvqG4oZXdbjf8jc7K9vy83fMXPOj8romk3P0m5+koZC2Jod4TchbE0O8IWxNDromg3RNBtKdpKGQtdkULTkUzSLm3Drd1ud0uOSFwtOSFzfrfIXjK4XdbihlcM7nZXjWbn5XjM+bj/Y3xc/4fldF0G6Jod4Qtfod4QyFsTQ7whkLYv9bvF0b+t/i5+k3RNBtKfod4QyFrsihlacimaR4uZlcOt3W52YuKHE8RackLm/WdqCmp8JjhNAqfCampoETUwphTUwphEifGampooFTUwp8Jr5WT4FDhNTU+HyUxuphTCmphPIpKBCmFMKYUwppublMcJqfAy9xp7KobqY3UxupjdTCf8fyuiaTdF/rd4QyFr9DvCbpHi2Jod4TchbF/rd4Qtjf1P8XRf63cS4NlPqeMTQULXaHIZC1+h3hNyFrsimaRdD0i4dbvlc7MXOyQsCKFpyQuH1jmFJSUlhwKGXAkBVhMIcJqSkpBSCkqQqQpBSUlJUqSIQCkqQpBUhSUsVJSUlJSRCkpBUhUhUjZUhS5iqG7KhuypGyobsqG7JzRLJBo2VLdlSNlSNlS3ZUjZADFUjZUhUjZUhUjZECoKluyobsqG7Khv2qhuycBy4dVSFSFSFSNlQ3ZPADVSFSNlQNlSFSE8Ck4KkKhuypCoaqG7J7RQ7wmtEh4VAVIVAVAT2igprRIKlUhU+VSojeRypCp8qnuVT3Kl3KiDkOap7lU/wDRVP8A0VT3Kp/6KeCGnmKl3KkfuKkdypH7lI/cog/jdig0y1FUu+9Uu+9c33KTvuTg6k8yAMs1J33KTvuXP9y5t06dJxQnLNc26/k3XNuFz9kapIVbrn7Lm7Ln7Ln7Ln7Js1z9lzdlz9lN3ZTchV2XPsFz7Bc2ym/YKb9lzTU3bLm2U3bKb/tU3bIzWKmdlM7KZ2UzsicFM7KZ2UzspnZTOyn2QmpnZVHZVdlPspoFT7KrsquympoHsquyq7fUOocYj5DBMY/NxTi9qzCGSeZAlQgX8zl6gho8qCJMHAZ3HO4oXdbnZX/K5+koXNzdcdbbn/D8romi6JochlbE0O8JuQtiaHeEMrYmhyFsTQ66LoN0TQbn6Sha7SUMhwnxOSbkLm5XC75XHpcULhcLh9Y6hxljwjZIaB4TclFE2EKHGDW0lf2x27cQRVccxcULhnc7JC75XP0m4mSgxmuc8dZ3HWLonw/K6LoNz9JQtiaHeEMhbE0O8IZWxf63eELYmg3Rf6zdF0G6Jochla/SUMrTkUzSLm5XN63fK5yFpyQuFwub9Y6m8XOpcnR2BMaXmpyKblwIGyg4xnnjSfcncc7ihw941Skhx63OyQu+VzsrXPDc1EiOiL0jf5fFx1C6J8Pyui6D+romg3RNDvCGQtiaHIWxdDrov9Zujf1m6JoN0TQULX6ShkLTkU3SLmZXN63fK49ELShcLhc36x1DiQCgxo6cCm5cHZL0uTjx68HxC3onRXlQHOIx4HO4puSiuk1QmTxNg1XPyQRMghGabBrNz9NsdsWucphNdEbPBelnWTK46hc/4eboug3RNBui/wBbkLYv9bvCFsXQbo39Zujf1m6JoN0TSbnaShlxlwORTchdD0i5vW75XFC0nBC4WlNub9Z2bb28CoLS2fEvkmmYUgo0goQk3gc7ihknNqClFbkhOWPH5WDg/JDg6G6qaY4Ecet0TSULY39T/C9Fk83E87bonx/JT4zU1GP8Z4TQ4DAZqL/W5C2L/W7wm5C2L/W5C2LoddF/rdxDiSeUrGfCL/WbomnjMzy4xNBudpKbkLTkU3SOE7IekcBY3r5tmvnc7ohack24WlNub9Z2YUuElLiFLupd1JSO6kd1Tiqe6kd1FY4pjTIYqR3RBmpKR3WKx3WO6M0Ad1I7qTt1I7ql33KR3UseElJSO6kd0R3Uu6kd0+bRmVDBLpzVJ3Kp7lAcyl3VP/RVPcqnuVT3Ke3DquUZlchyKp8qkL22qgKFCYwuluqQqQqAqG7KgKkVBUN2VDdlQ3ZUN2VDdk8AU4dVSNlELGCZChuhv+KobsqG7J74RBAImqRsvbZ9q9tmy9tmy9tn2p7G0nBUjZUN2VDdl7bdlQAntFJwVDdlSF7bNlQ3Ze21OY2SpCobsqAvaaqAogFJVAVKo7lUdyqe5UQchVPlU9yqf+iqf+iqf+injlzKp7lU9yqT9xVJ+4qR+4p45cypHdSP3KR3UnfcpO+5PBpOKkfuUnfcpO3Unbrn3Tp0nFNDpDFSf9wXPuFz7hfybhfySxIQqkFz9lzdlz9lz9lzJs5LmXNsufYLm2XNshVipu2U3bKZ2U3fapu2U3VZKo7Ko7KZ2VR+1VHZEnZVH7VWftVR2VXZVdkXdkD2U+yq7FVdiquxVXZA9lV2VfZVKpVIFVKpVBVBVIOVYVX1DmLim8XPDV7zycAmPqXX6TpywQbHni5Ni40lC7raYrQqw5DhJADj1ufpK9gl2JwUVrWASzUIksxsbm7zcdQ4D1b2xiHDlnxf6uKx5BZhNV1thO3PD1cF0RracwV6dpDOYY8IjS5jgM070sQSP/ymzpE87Ymg3RNDkLX6TdF0G6LoN0XQf1dF0G5+k3O0lDK05FM0jxczK4XfK51xQuFwuH1nZi4pvGJCLlINaoHyXW42xooaFBaS6pC75WFCE0J5/kwQu+Vz9JRcGhTMSImiQsbm675DgYMNxmW8SAcwniVAH3XRNH7F0TQbn6DdE0FC2LoN0XR/5dF0f+XRdBui6Dc7SUMuM+ByKZkLmZXN63fK5yFpyQuFwuH1nZi4ptkWJ0UNsmrrcbHZJkOuIZpz2sEgoZJbd1teZNKhtm6aF3yufpKjNJaJKBQPKmN7G5u83fIXP+Pm6JpuiaDdE0OQti6ChbF0G6Jp/wDLoui6Loui6Dc7SULTkUzSLm5XN63dbihackLhcLh9Y9L22GCQ6YVb/tQuNr4JJmDJN9P1cU3K7ra4TElKJDyE0DEd2TRIW/K5+k8HQ2OzCEFosZm7zcdYuf8AD8roun9i6JoN0TQbo39broug3RdP7F0TT+xdF0f+XRNBudkbnZFNyFzMrh1u63OQtKFwuFw+s7peLutxuKbd8rnZIZXfK5+koZXNzdcf7G3P+Hm6Lo/YU7Yp5Cp2xdBQtiaDdF0G6Lo/Yui6P/Lo2g/q6LoNz9JQytdpPhM0jxxJQPBmVw63fK5yFpyTbhcLm/WesVisVMqblihNYrFTKdGazNMih+SmZrHjM7KZRUypu2U3bKZU3bIk7Js1MqZ2UzssVMrGam5TfsuZc650akKlzLmXMuZcyxmuZc265t1zbrm3TwZZpuIwcqT9ypP3FTaTKvFU9yqe5QGJVPcqnyqPKoVKoFYTy1gnJe/DBFTSJ9VSqAqGpwHL5VIVDdlQ3ZUN2VDdlEaKcuqpGypbsqG7KgbJ5Yzz0ColB5s1Q3Ze2zZe2zZUN2VDdk9jQ04KgbKgbKgbKkbKkJ4FJVDdlQ3ZUN2VIVIURopVIVIVAVHlUDuojeX9hGkYl0kyJCeZMiTVPcqnuVT/ANFRG8uZVPcqn/oqR+4qR+5SP3J4wzUj9ypd9xUnfcpO+5Sd9yjxgzCc1D9XCf8AOR7oY5Pmuf7lKJ9ydEo+WKa+K9rqmyQq3XPuFzrn7Ln7J1Uim1SXP2X8nZc+wXPsufZNqkpv2U3bKbtlN2ymdkJ7KZ2VR2Xuf8qo7KrssaslPsquxU1V2VSLlUqlUFWFUE56bECqCraqgqgqgg5VBVBVBVBVBBwVTVUFW3dVDdVBBwVbd1U3f6jrxxiVS5c0z0rc34lU+3HbLIrrcbYkdrMOqYS5syhd8rYj6GkqqM9lWS9PEcTS675XRv63eF6OftknhFiOe72of7KhwWQxh/7xbm646xw9fze1DGZdZEiMbTM9Ux7XibTO2Jp/YsjRqJNbi85BQoNPM81PUTSbJgZpsdjolAUXQbomg8SQ0TK/y4jyfbh4DqV6Z7ojJu3UXRwc4jIJ8aJDxczl3QIIBHCLp/8A9BBn+VFeXHlaclF9NDZTEhilwKGQ4xNP7F0TSi6JFcWsMhuo8L2GiIx7pzQMwDw9RF9qHPqoEEUVuxJxT/TwHGZYJpkNrBJvCLGc5/tQs+pUL0zWYnFydkhacim5XNyuHXjLj8rnXEKlDjJSQ4y4SUlJSUlJSQCkpD6j+l4tdjHYutxsixSOVua/x5cxMyU0SaELvla5swvcMHlcMOihAl4dLCV3yu9U7kp3UJlENoXqItDO5yXpfbDZB03dbG5u83HWPHBriz1NUdueXEiYK9ljaBnj1QAg+tDW5OGVsTT+xxcaWk7BQAADGiHEpj2vaHNMwouj/wA4uc1om44Il3qu0Mf/ACvRsxc/9BRdBui6DxIBEivU/wAcClvXBQWUQ2hRdP7HH1jj7ftgTLymNoY1uw4RtI/IKK//AB45c0TnqCaYvqJGVLP/ALsjaf2LownDIUCF7TSJzXrz/EG7uTRJoHbg5rXCTgo0N3pwXwyaeoUNwexrh14eoie3CcevRQ4kP08KZBc75Jj2vaHDIqJoKFpyKbkLmZXDM3dbnIWnJC4XC4fWfeLYXNHcV1udZEgVGc0WxXRQz3EyC5ucQlC7rdEf7riwDJekfMFu13yuxix3bNQyUUVeqhA5JzWj1jSM5WMzd5uP9g8cPXy/xz5ElCn7bJ7cYmqH+ShfyesiP6NErYuQ/IcfVT9iJLZCJ6f/AB2l0sAvQspgDCXVRdH7HGK8+9/OHU7KL62D7RbD8L039LMFE0m6JpsNMWMMcG8Iun9jgfUEuohiZUKDSa3mbuPqXhkKo9CF6eJGiCb4cgcl6XB0eH0a6yLpH5C6Lp/YT45ZEkRyyzUP/wDJi+58W5DiSvVR2uZ7bMSVAh+3Ca3h64YQz0DsV6mK2O1sKHjMqG2hgan6SvUxjDa0DUV6ev2xWcVEiNhiZUGN7rSZdeEaMxjTivTRfcZllczK4Zm75XOQtOSFw+oPrPvHF5IaZBPivpxOK9JKRHVdbjYVCb/O4opt3yF0xCixJ9V6MHmdvd8rmwvbD+6GSjQXPIc0ycFAgUEucZuPWyG+cSI3a4/2t8IxKXSOUs1I+oij/wDm3/54xIrIcqjKZkvVRRJjWHmJUCF7bJdetsXIfkLB6WAHVUY8Iun9jiQDmvVCfq4EMAAYcImm6NosDGgzA4RNPCL6WFFMzgdwmw/UQzhEqHfj6pnuQS3uEx3qmQwz2sQJTXpoJhtMzNzjM2RMh5F0XT+wpA5hO9KQ6qC+g7dFDZFGL4k//rgWgiRTmMYMGgcSARIhNhw2aWAcH6SnQ2PAqbPhFgMiyq6JkFjMGiXAekaKnOM1BhtY2TbmZXDM8OadnW4oWlC4XC4Z/Wfle3rZS3ZRWFrw9qa6qRRMgob62zsNtImim8Yji0YJhqaDw6i57GnMJgk0cIz3mI2Gw+bPlc/SUMrYjwxpJXpJ0uccybv9o8IhpzCw4vY14xT/AEtNBY/nqzUE+oa6mJJw+7g57WCZOCmOETIfkFMKampqainl/YU+PsE+p90nAZDhE0qY4z4RdH74z4xdP7F0XSPIs6KG6tjXbqLpH5C6Jp/YuiabomgoWu0lMyFzMrhmbvlZjwchackLhcLhn9Z+SmpqpVBVKpAqampqpTCnio8QBslA5YYCqVSqRKmpqpVBVBFyBVSqUaJPlCZg0BTU8VUqlV2VXZVdlUdkCZI1SwUOHQZ5lVHZTOymdljNcym5TcufsuZGclzbqTt1J33KTt0AfuT4AeQXFNbmpKXdS7qnuVSqedUhUBUBe0xUNTmibfKpCoavVSMoTdRKENoaBsqQntEh5CobsqRsqG7Khuy9tuye0AKkbKkKkKluypGyeBSV6b+SNGi9NIVIVIVDdlSNlEaKVSFSNlQ3ZUhUhRGiSpCpCpCpCpCeMP2FSFT5VPcp/PEENpP/AEVRLqU8YDE5hU9yqf8Aoqj/AKKpP3FUu+4p45c1jupO+5SO6x3UnfcngyzUj9yk7dSfupO3XMnzpKFe65+y5+y5+y5+yNUim1S6LmU3bKb9lM7Ko7Jhdspu+1TP2qo7Ko7Krsp45Krsquyq7FVKpT5lWFWFUFW1VBOKBVQVQ3VQVQ3RIQcFUN1MbqY3VQ3UxumlTCmFMbqYUwgVMKYUwpqaBxKmpj6j8rxd1XttOYUlJS4G4pvCSbBa1xPXj1uKF3yudkhcOt3zHi52bfPB1UuUqD6eglxM3b8YmQ/IXRNP7F3rHyhS6uwUJntw2tti6P3dEy/YuiZD8hxe0uEg6ShwmwxIcImQ8i6IeW6Jpudkhack3K5l3W7rc5DhJSUkQgFJSCpGypGypCAUgqQqQqQqQgFSFSFQ3ZUhUhUhUhUDb6j8rx1u63OQtKbd1uKbkLvnbEjBinFidU3SLCZIEFDrd8/0jGhgyna7Nvm6J8fyF0XT+xdFaCAZYg3RdP7ui5DyLomTfyF0TJv5C5+Vg4RNNz9JQtOSblcy7qbutxQtOSH/AOl1+s/JC4XF8ogBuconqQ3AZqC8vFhTXCZFxzsfEDVCiOc5FNy4kpsRr8uHy4ue1uZT/UF5kxM9OSZuRADZBDKx2SgnMJvXza5waMU57oj5BM9OBIm1+bPN0T4/kLC4ATK/ymTyKL2vbhuLomn9i6Jl+7ouQ/IXRPj+QuiZN/IXP02Dg/Tc/SULTkUDhc27qbjquKFpQuH1Op+s7JC4XRmVSTIpbg5Ag8Km7hP9TDb3UX1D4mAUH0pOLkAAJCwoiRmEyIHWnMcJyT42ybCc8zKa0NEgim5WOhOaamIeplqav8uFNH1ZOhiA9U/rJD0hOt002GxuQ4PyKGQtc0sNQUN4M+JcB1T/AFI+KbDfExcmsa12G1zs2ebAfYfSdHThE+H5Di94YJlEvjvTITWDJPAGXVwui6R5F0TT+7ouQ/IXRPj+Qui5N/IXPy/dg4RNNzskLJo5FMyubcMzcc7nXFC4XC7r9Z+SGVwzNxzToYcE6BFGkr2I5X+LFPUJvo2/IzQY1owCF0s0+GRi1Nj/AHIPbuqm7qobp0Zm6PqNlTEiJsEN4lNytLQV7UOvSg0Dpa/JDK72Wkley/o9ew/71/it6kpsFjenD/Z+rnameeEwppwa4SKBdAMjixOiw3BsnfIL3GfcFE9UwacSmw3xnTccExrGCQU1EyH5BTU+M1GPL+wphTCmFMKYUU8v7UwqhuphTU1EyHkXRPj+Qui5N/IXRNP7FkuETT+7n6ShwnxORTcrm3dbjnc645IXC4XdfrOyQOCmpqampoHE8JqampolTU1NTU0SgVNTUwphTQKmE5rSjAHRy9n/AKXsf9r2G7prIY6KYVQVQVQReE12CqVYVYVY2Kr7FVc2SqOyqOyqOymdlN2ydVJCpcy5lzLn3XNumg44qR3WO6kd1Luqe5VPMnPa10iSpIxYU5YlUhSZui0TaqGr227Khuyobsixp6KLBh4cvVf4sLZCBCHxVDdlSNlIKIBIeQqRsqG7KhuyobsvbZsojRLLqqRsvbZsqG7L227KhuycABkqRsqGnoqG7L227Khuyc1o6dVSFSFSFQFQE9un8lSqPKo7lUdyqe5Txl+So7lU9yqT9xUj9ykfuUQGnNUn7ipO+5Sf9yk/71J/3J4Ms0A77lz/AHL+TcLn3C5+yeXUoF8ui5lN2ym7ZTdsiXbJpMlM7KZ2UyqjsquyBVXZVdlUq1WFVzFVhVhVhVtVbd1UJqoKtu6qG6qG6qG6cQgQphTU+ByTTcLhnd1+s7IoDAKSpUlJUoBSUlJSUkQpKSwXKqQi1BoUlSFSFSFJAKSkpKQUgipKSkpKSkhd8uL4jG5psVh4OyQyub183f7P0nsa4YoOfV7YPLNQoIZ54H07JkphIjhs5i6J8PyF3+RDiSA+4XRch5F0TIebomQ83P8Aj+V0T4fkLomn93RMv3ZPg7Shacim5XNslw6njJSUkc1JSUlSFSEQFJUhSVIVIRaEApKSpVKpVIVKpVAVKkg3FSUlSqVSpYqSl9R2SbkLuptiBxHKmxpGl/RH1JLpMCxkh6d5JLnJ0IME5qASWYooXDPjUOEwib25WvqlgUyLM82YRiPiOk3JMbS2SkFFLchmoc6RNPyQub183f7P0ory40BexITGaGXCLFJ5WJkOgt3uifD8reiHpfae10/kOPq/cDWlk816eI97eYYjhEyHkJ8CLWSx2aaJADh6mJQAN16UvbFLTkVEyHm6J083RPj+V0T4fkLomn9i5+X7ufpQtOSblc27qbjncULShcLhnd1+s7IpukXdbSvUGuLgoEEMHB8RrVzRndkBISRQtKMV5eQ0JkRw1qPHpEhmvTw3ancHsDk6TCJG9t0QVxsFChhjeEZxmAocIDE58H5IZXN6+bv9n6TYTQ6ri7SV6aWM807Uy5+bPyuifH8hdE+PkWEA5hUtnOSiZDzdE+P5XP8Aj+V0T4fldEyHm2aiaf3c7JC12RTcrm3dTcc7ihaULm3dTd1+sck3IXfK2ICWkBf45b5TcuEZjq6kyOBhJNe12SKFpTWgL1JAZ3Xp4JdzO4xoxnSFDgnU68WkTQhtDhxeypSjD5IVdU7JDIXN6+bvn+rXQWlFjw5snIWv+H5XP+P5XP6ebouQ/IXP+Pm5/wAfNz/j+V0TIebomn93P0lC05Jtwu+RuOdxQtOSFwu63dfrFNyu63OsLRsvZ2XRNu6p0EufM5JraRwKoAi1FEi4ptx1i52SGVzevm75/q5x5m3P+H5KYUwpjhgonx/JTU7IhlLyLospDypjjNTUQ6fyuf8AHzdFOn8hdEyHkXPyufpKFpyKZlcLutxzuNxyQuFwzN3X6xTcrvlc5C5t3W0gFSAU1NTU1MIlNKmFUFUFUFWFPnBVSq7Krsquymdk8mWSaTIKZWK5lisUJ4rmWK5t1I7qR3XyVPcqnuVQqFQEWioKkKkKkKkKkJ4HL+SpCpGypGypCpCcMvKpCoGyoGyoCobsnjLyqQqQpBUjZUhPaMPKpbsqG7KhuyobsqG7JzG4YdVQ1e21UhUBUDunNAp8qkKjuVR/0VR/0VI7lRBpxOoKnuVI7lUn7iqT9xUnfcng05qTt1z7rmXPuuZPnJCrdcy5+ym/spuRqkhUpnZTOyqOyqOyJwyTTgquyq7Krsq1UgVUFUFWFUFUFPFVBTCmFMKaJxU7XIWnJC5t3W7r9dowUlJSUlJSxUlJSUlJEKSpUlJSUkApKSkqVJSxUlJSVKknBBqpVKpCpCkgFJSUlJSXVSUrHZIZXN6+bv8AZ+rnam3PzZ+Vz/h+Vz/j+V0T4/lc/wCPm5/w/K6J8fyCnwnjlxiZDzc/K52SFpyTcrJKSbwkpKSkpYqSkpKkKSlipKSpVKpRCpVKpVKkpIBSUlJSUkApKR3UjupHdY8JHdSO6kd1J26kd11WKx3+qzK75XOyQubd1udeLvkLnZIZXM+Xm75/q52ttz82ebonw/K6J8PyuifH8rn/AB83RM2flc/4/ldE6ebomm5+SFpyTcrhd1uOdxuOSFw+p1+u3K75C4oXN63dbnXFNuOoXP0lDIXN63fP9XHW25+cPzdE+H5XRM2flc/4+bonw83PzZ+Vzvj5uiZDzdE03P0lDK05FMyuF3W453OQtOSFzbhnd8j9dmVx1C4oXN63dbnIWlNuOoXPyKGVzOvm75/q4623Pzh/lc/Nnm6JnD/K5/x83PzZ5uiZw/Nz/h+V0Tp5uiaf3c/SU205FNyuF3W453PQtdkmooeqIJqX+Y37UyI14mF0Tbhmbvl9dmVx1C45IZXDrd1uchc3rcdQudkm5C6H8vN3+z9XHW2z9qafqh+VNTCmFMKYUQ6PyVQ3UwphTU1EzZ+V0TNnm6JmzzdEzh+bombPyuiZDzc/K5+koWTCORTMrm5m7rcc7noWnJBRn0tUOFWZqJAZRkvSiU0ULhmbvl9dnXzccxc7JNyubmbjmLnZJuVs03qpqaqCqCqCJxCmqlUqlUnHBA4KZ2Uzspu2WKxTZ4rnXOubdc26k7dS5lI7qXdS7qXdUojmCkqQqAqAqQnDFvlSCkFSFSFSE8CbPKqL44luqQqBsqQqQnNxZ5VIVIVIVAVITmibfKpCoCoCoCpCc3LyqAqAnNkCVD5xPFU9ynjFnlS7qnuVSfuKkdypHdOzb5Ujusd1juubdc26fVhj1XNuuZcy5lzJ05LFcym7ZTdspnZOJlkgSquyq7KpFxiRPCqwTHYKpVhVhVhVBNOJUwphTCmFMKeKnac7noWnJBRIdck1gaox5VBGCOSabhmbvkfrieKxWKxWKxRnMLFYrFYrHdFDhisVIrFAYqRUjuqTuqTuqe6pUlJUqlUotQCkqVSqVSEApKSpUlJHMcJKSkpI5IXN6+bvlxe6nidQudqZ5u9W/S3uvSQ5c1r82ebnZt83PzZ54xjyFQP6+DzzM82kgIxmFzR34ReiZpx4B7SZTUTp5udkha7JDhJR3y5QoMOQRGCZlwkpKSkgM1JSTpBOrOIUJ9WBzUsVSpKlUqSkpKSkpd1+0QgFIrHdY7rHdGckAVisd05lXVBpHVGcs1GERrpgqBEc9uKxWK5lisZrFcy51isVjNcy5vqs+Xm2JVTyqmJhihO0puVwzuNzkMrm9bjmLnZJuSnwcZCaZFDuDOvlTFj3BrZlQY1cQ8SJpokJJ7w1Mih7wjEaDI2u1s82GM9x5F7zm6gsYkQdymiQUeMQZBQHF0ME8X6mebn5s8p8SlVRM0x1SK9108kXVe35TnUiaEcFPfXgmCTQFEfJCfuM8omQmvcLzgnVsxmmmpoKiOLnp0Eck+ruGqUuEVxnJez1UeJplumGbQUclCLyeL8kLXaSgi8BGOyWahtrdUeByTHtynjc3rxcwl/ZAKX8y63HPi+MAvciOUJjw6ZRQ4OigIuiuyXvRYbuZTm1C05KK2cNelzNou+X12Zu82ep/qKh6G+E7p54kyQiNdkeBTMrvlbNFw4TAUweLk3K4Zng54aq3lDg+LzYKE8u4RH0pnuEz4eocQJBQhSwTRdXEAHD1D+YNUJhqB4GK5zy1u69tyguOI24+pJfEDAoUMQzLtwfEDZcY2ts8k97a20dEGmJFAtdrZxKhv8AZqBCJdGdgE2HQWcGww+K+pDDjE1M83PzZ5TjOK1PIDSmMycomDVMNbhmmj+v8lmnMY0ZKE2Zq4PE4ipk6H5XqJ0CSgtk2ajY4KGJNAQwiGaiZwvyT8lCEhwiAh01U5yLOcT34jliS34vyQtfpKc+QRn1VFTgmtkOEaJISTAS4IWt68XPAXvsTMTNdbjnwjOkEyFPEoNA4OQUSoAkKC0nFyAXqcZBMwYELTknaCvTaja275H67c3Weq/r/aqiCkAYSTvcKGXCMC5hC9PD69eBTMrokUMcuirNcuEeIWuACEJx1FOFL2y4RKnxKQmQ6Oq9wmNhwKblcMzwezGaa7pwjEywXs5JjA0cJVRePqOhRivdgoMKkTOfANnFM+Dsl6eFIuJTjS0lennieL2kRhETXAuPAiqN2HFzA7NBjWvGC9O3W7c2u1w/3Y6G12YTWtbkE88zPPCkTnZE1Q/yuimVPlMMjOSa1z8TwImJIQACnaofnhExICaJDgWgp+qH540ic+Ek/NnlETsknDEHvwLwEJueDxfkha/SVEYSAQmw3HNBkjwK9ouJUJkm2zQzPGvmM1TWmEw3SOS63HPg/miJuXFyHCtgRjsCZzumuiFpyUZ0mL07cLW3fI/XbqdZ6rJvlNyCe9osYZRnDgUy6OP5WlPjANwUFpJqPB0KcQO4YmJPhOiISi978lBZJ/ApuVwzPBzpJky6fBzZrqONOM+MQTCZDaJYcaRxZ18oiaAlYABEPjhKw6wsslPhNTTjzMVQ3VQUwqhuphPIqh+VMKYUwqlNPOLPKnwmp8I3NEa3ug0AWxNUPzwDcZ2P1M83PzZ5uf8AHzwMMFBoHF+Vz9JTcraZTTMrhnxdBaTNBklEh1BNL2mRQdO058Mo37Q4uQUUyYi6a9pz1AdQ+RRyVYCBsdkVjEcmNkLW3fI/XbrdZGh1gL2ou6MF/U8Yr3tyC9O11Zc7iy4ibkILBaRwLQVIBAc3ApuVwOJU1gsFMKYROIU1MKoKoKpOOCacFV2U1UdlN2ym9MniuZcy5lzbrFAcykpKlUqlU8wVKpVKpCpThzNVIVIUlSFJPAm3yqQqVSqVJOGLfKkqVSqVSnNFTVSqQqAqVSnN5mqlUqnuqTupHdOGLfKkd1I7qTt1J26k7dOnUzHquZYrmXMuZPnh5XMpvU3qbtlU7ZPJlkgTspqrsquyq7Jx5SmuVSqVQVSJCaVNTCmFMKYQOJUwp2fK458I8Mk1BQ4jpYhA8H9EFmv8eHPJBoCi+nqxC9mM3qocOVhICixp4BQIchc275H6/wAysVisVjwfOSE1isViudcyE1zLm3WK5lzLqsd1ipFSO6kUeElIqSkpIDjJSUlLFUqlUqkKlEYqSkpKSknZJuVzetw1m46hcdbLn6mebnamebnamXO1MufqZ5ufmzzc/wCPm52VztJQUlJSUuDclJSUlSqUAFSqVSqVSqcVSqVSpKSIUjusVSpFYozQB3XNuubdcy5kZoTWKxXMnwojjmh6cjNNnJcy5lNy5lMoVKbtlN2ym7ZTdspnZTNRUzsqjt9X5m52V7etx1C43FC7rcbnZJuQuZ183DWbjrFztbLn64dztTLnamXO1MufqZ5ufmzzc/p5udlc7SU3K0plwu63HO51zskLTkhc275H6/zPi52koXNzN3W43FC7rc7pc7JNyFzOvm4azd8xc7+xn7ufrh3O1sufrh3P1w7namXPzZ5uf083RMrnZIWnJNubd1uOdzulzkLXZIXNuGo/X/2fq52SFwzNxzFxQubd1udc7JNyFzet3yuOseLnf2Nudrh/u52plztbLn64dz9bLn5s83P6ebomlC12SFzbhd1uOdzulzkLTkhcLhmfr/7P1c7JDK4ajcelzkLm3fK43OyTNIub1uGs3f7B4uOttztbLn6mXO1NufrZc/Uy5+qH5t6p/TzdF0oWv0lNytKZlcLutxzuNzskLShc3K4Zu4//xAApEAACAQIGAgMBAAMBAQAAAAAAAREgMRAhQVFhcaGxMJHwgUDB4fHR/9oACAEBAAE/IfiddYWqWKq9CpbIsVWtYql4KkziqbOofidV1R6XurxyxDo8U8CnJ3jwqfPHiU+SFUStT4RYuqMxn/Af6KVzw8gtdE0XujxakhVX9qtZJnRehfCJJHareLaX8t1U4WFipXqTMWCo2qldVaKpeAVCL1d9Q/A6on0Kr0qvDFZDo8c8Snyh4VXWKnxhUp9IqfBEOh4R4lPhFq6xkk8Q8OqxVX9qZIEU3BVSYu+DtiWN6q7FnzPGeLsWqrnU3kFUtVXeq5VeCqrovkryFV9Q8P691PDhYusIIxjxqfIHjVEqkXyYqkxPGp8YtdYwQeMOaabNV/bCScddcVNtIh2GwWNyq7fOyNwxJRyEoaQKggTggQJTM5jmInMchAZkolECBDcZCIWZDc5CG5KGm4mpZ6EkolECSMDIlECG5Dclbiak50OMchyENzmRfA2lmjkRyI5EciIbo3WpyErchuQ3JW4+YahNshxDgHGORD8bCVuSiUStyURauvZKJWGRkQ/qHX8KY/0Dr+KnMrkeNSwtFWKnwMb5WFjnWWUMWOg8SnzB4VPhHh4ST8AkbPsTTq6rK+EPBYxxUXKr+cklAhtggwhBVAhF+MtkGIgJZscRxEdjgOAcliBAgQIiBMWI7HAcRwEdhJoIbESOxHYjsIgSbDdocJx4bhEkEaHDOAcYk0HDJ/IQbDiHCOMcU4RMy2ZwjgN1DhOEQOFZnFOGZERI7IcAUeRmeE4Tgw3AGjI4McuMSdBfjCgWWmAS9DgwC+ULX0HD5O77OF/Z3/YhdsWdoQ5+zu+yO/2Ibv7FXnbcmi/2Q3+x+DPwZ+jImzYL/wBh+rJ/9SRSBpSQJ8aKe/RkXdjLixCHyPpHL+kR/wCB+CM8O8tiIjSfgjhfRGx9Ef8AgJ1BluB1/RErfoj/AJDsM1mhIKEO2KZOQycmsOSkOES6IXNyJKn/ANxO19n/AKxwfsmXJHCJ/wDQ4P2cX7P3YzxkJ7aV8GaBUIEc0bwG2CBySW8nuHNWZxHcdh2HVj4s5R2HZ87ZlJeg5rtjPMoE4Xui0cOIWbmgrpXaMHMuVWK1lSqXhWVSu6rFlXlVeM6r+ip83a91eEWOsVjnhVBa6p8YsVPjVtU+oKlo6CxU+KeJinC50eFRBFZe+6tQqbwsIIILKTHTgayxwQQR/hRmwuorkWEiwPXbFrDQ29kIgZIKavMr2Us9NV4sqV3VYVlShG28hHXsKrw3VcCp8he6vHLFhAsEJ41WWuqusXXx94/j7q9IVLfUWuqfBLXQyMEeMeDVbqu7VahUSaPiRvB2qu1R/O97GHmwgvLFZELRFhYw16C7arYMm2KrFVpahuCIDSpwYr6rxYqld1VfFahXmGcK2whu+VXhOq/rq872q8EVqs8anxixU+EKl4b17q9H3V6wqV+ssXVPhniDwkR4x4qpbLNV3arV1V7qluCScXaq7VWWf4PuiG0pcLCxhcE7DxV+DQW5wMUsLFVpYHuJpJRgy51U0OWInHA+St3R4FV4VqJ+TQEjLTnkOqzta1eG6r6n0PdXjip8AsXVLmfJdVNU+j7FT6HsVPqCHR4YrIknHwC11hGLxjxsXXoILuwnTOdcCwjHTUzhnVLtVsZZ/iPKxknB2LMFlEPdtMGTXlJDOBsuhkJJCk4WqG8LDKguBiyudD8jFXYtvQZxmSZnLEPNCGVKIAtMUs/VabJU6AQ7Cq+gZK3JRJJKG36CG5JJDchuK+n2Stx7BsiVuRgz8kGidBlCz0JJwkziZXtCaM6OC1U6LYVPqe8JEBAlq9TojD1fYqbv8xsrdycHFWxnB46xvqp8Y8Umg7Yhp0jCVhcEYSSXGroVPuoTguYspdqtn+KLPaS3Ie5LcluQ9xoQluJ7iW5zTmYEtGwEPDEc7gITMlvgI3EBAJC5upz8a+Rh02oh7ktyW+A5A6Ani45o8iQzuCCkWazdie4bv/64L9GfgxMs/sTFk/0Ut3+kd/sd32dn2JKa3FimQe2cZw4RbI7BvQAHhlZjNUcYzuZeSMpys4BBoLC1yOMcQzJiNl1ZxhCLSWclGjVkhV+wWQ4D2yYpVgkaeSZysTKxFYdn2dv2d/2TrgliZ+yG7+yH/Q/Nkf8AoLvsjv8AY/Bk/wDqT/6kxjeWW9iBIpAzsPIGkuaJeo5Zzfo/BDaG7FGoH5I/dD01+hLZ+jTFi1ttj/xCP+Ya0fQNf8A8wD3C+iH1xRJTHQy0QTtRO0T/ANh0k7RnZFc4f2fi8G//AEYG4CHyTnnIOSOQEnUcg5JLed4xq8ZuO6iSPLcc47CC1EdmR2Y0g4yOzI8ndhNIItGLYZH5PPqsLMVGYtISByLFGDHeiRtRny0iR725bUvWl8JZwWYNGJWSWKXjXFm4M3MnuJTu+KvAESxMrlF1grJmZwJISzh/w2hdyZ4MrhlkyadAqoeYZ/CZw8YsXVWXxn1vdXle1XnL3VlcKlfpMqdUv9Qv1qXYs1XvvGCCCM3RFLWFTZUdscEEDWKCCCBSCPk8uqwsxYqGT/RcwqtyFRBJzJULVUqCShpLzPTFi6qV3VcQW9sMSpUeVU/FhFBONmH2IhIUMqv0c11U+KKypyDZT6/uq537VX+/arP3L2KoK1PiljrCcXjHhVWcWSSXdqv9KtHdS5VdR/4p5NVhZQh5Wd2xVblQzkNkdTXwKDdS9aZ4TRsqV/Vc1+rQZUNxrk4xPwg/AKmEmqb/AGvdS0iJ5WxYqnZT6XsVN/v2qv8Aa91Xu17rCp8QsWMYeMeBS7FvF43dvgzjBpqXKj/yxf2FS7FmLUlzQrTE5quFi1JmhiB5hiQi+OlzGdS0L3kMgp/0risiyMjuVP3Q01Zsnh1X9FX5OfhDwWBVQVqfW9ip/JzV+zkVN7v2ripb6hOUqfCPGpdizixYX9qnV0d1LKrqP/Fb+9TtXVTSKo2VX+tTZh8nVWrqrxix1Usc7onB1/Bkk0XjK3JJW5K3JW483/8AoQJRK3JRKELPIbkrclErBkbKFnSsrE1FyUThJBq69ixnB4/C4qbnfthOE4eV7VesKiSX8S11T5o8di1DGSW6r+1Mj9BU6e6lwspY00uvq7+axdk7cE7ThOAbDiROAvFCzAJ2Esl7YDgGZwYicOEZECscOK07ThJzzgOATtROxE7EZGcGQog/g/g/k/g/g5SNyICCg4GRkPCHKwZQGexMmSdFPdufoxLv9iG/2Ei1f2R5GjoJuZ9Eb0s1iBwnATstzHoSXC25AM+Qjk0PZxqJ0vspf0JZydX9Y26RsvRKUBBbLFKMcQllHAxGy7YSD9r3hT7/AGdn2Q3+xzfYUrnYvuyO4TeYGaQWkn6PDTH+kXs/JksCHvDnGre6OZgXNxAbTdtUiZWSdso0ZQnA1o8DgfRZNHsSHQhdORVVg1p+giN0dsFs1jJQ1BIdAwdBMLB4skcX7OCcA/V4ZpvFy23HNJ7yczYT34bqzuI7MtZO4uDI7M4mcD+sCBZDF01hcxz4TBSOY5znOce6I6nMc+I3OZyXgOJ8mjupqjn0CD+6Ng6GOKEpd5p24ZLaXUylmCWSEIRZxhFC9amh4WYXeEnc/rI+uerXePlVNkcPBtuL60EoSWyxylqBBSnFNj9Z0ZYBHt3h6dHrUNCWSRmxb30wCqqwfXQksx2DUk2xbIL3a94MEmscxN6XQxCU1KeFv85k2GUQytTs7ozs4x/VzV717IxjddR8EiSm8mcyKcHsVZska/fNsM081RE6FIkf/OgP7bNkU9TxhMhFDLdTZ9sGpEIIH6UQQaOxYwQKgSCYRiIQQiBCICQgQ2I7ENiGwiWQ2OL5PZU6MDMu2+Pcaker0Q7ivopU9MnPPbjL6XJzUvWqPcPWOZa9oZMW57/ibyxnDgUXE7uixiCcSr7EViz53qFmxPdJ4T9Z4rZ2YxGtS5vYX3bZovd+2L3ETUzqJGuzcmi5Vg9b2LB6sMdWicDd+M+z9nOMRkkSEoNJfWH5G5M0mfR/h/sbsJQksbP6zqcgcTCkuhNzJzZSRx0iwc0GhnNLNLaCEG+jL+hqmhSWk6Fp8wtqwePjHjUssUSSN91TKwknDR3UuYYofylz+axd1M190N5DbWsvgljkCLFRDWexLanbVE5kzbGNaq9aWOaOx0K0WLvrMvibyQi/X9w5NGcZZH5B1IHT+JvjYksSWfJS1nYYvkNtF2fo5xdyZHklhmalrREIgomWWae9au/wWKN8zbcrD83ODvDdXkSsh126x0NZLchVSlp0HSx6P+0fo71fk5HqGstxf7+NqNwh9zOkbhpZ4ZnAXLkGxKLRYZha0Xsa8MTlFZAiAiSllqxNPJKKrdMHmVP0q0d1L3yyquffzWLtCpZr7xekjjJEXkO7IZd5zNNdY2CcsWFj7qbyKWTjTyY9Payr/WlqUKzUyksdChdgxmt+oZYXXq8gKsmZ/wDA3aHJrqxRPbDljUjyECl62falo6/zRBaemH7OcUEImuThnpRd5jL/AGqrva9ixdkU3eMPcvYiETE/mHv+8VyMNwPkTFMk6jFzgaP2txU2PxmO2X2pGfegMZb7LIXNJA2txlnGeMCDWzPHEscjFQtIkkkkP3n0YpyQjKBpJ9OBHRlVYwmjyCBPoE8X60yaaln+HLnfzipZ7MYk1oSKy7FAnmWnrTVFxg1d4vLD22qwiqT5LFIJYQoJu1EoSWP+tTha6pf1ZZLcRtX7qflFlH2KChKCSVuRrQ5T2Fu1WpLJBkhKHGMmpkJySOs/8M5CG5DchuQ3F/pqQ3JJW5kLav7EoZT7RoSf0lENyUMtlgmiUQ3JRI2//wBBNbkkk4fpb0NpM3ojLSITA0fgzq/ZzjfH3oVQsVPgHhVewmnzaZJ8KO5Bo7qXqs12zqud/OLDhhQIGe+8ESJAZQgNCXeQk4QIEBYshEhjCBeZAaC43mMtsR1Y8rI6M6M7DuO8bFciMyHdkkMkHTbrQ/teCdiOBHCido/kWSRKGJps2iO4bQcWImqepLdj5juwnZjWF7YfaKDU4PIlaFonjOAdC8pfzMvrgl9HEWj/AOxwKUI8mrVe8Etkb9MZlGCt1xTjG/QiE9wjbqjgxw4ziNH1XsW2cZxncd32Lj+szu+yG/2P0YzhIs5LcCgSUSw0v2ZMUyQZgNllDbnea9kJrJnMiE58IvZUdx+KPxRmFckSolCbcdHbASE7BcIsZYTCyOAcX7wTP9gfoznHJOSS3iaQnvOw/BENmR2f0O9DOwQ85yHKIaQk5cFyYJpPM3JwjjHGOEPbCDkRzI4BzI5BEvPU5EchzIgQEXNSG5yL5MriShEEEEEEM+yCCCCBrINhORohiQhRLIggggQRZ9kDkXotqyMGshBFFguSIpmziq+WKq/vU65aFfIJ8iJ28X4m9X6OaUSa3oIXAZxn3T6nuqz+M6nj8meM0G9oire71eH4W9UX9L2LB2Iw9iFTfoRhe6LVMFn9qV1EEDXiQRhCIQmS7EIIECOwmLCNiOyOI4RxjjEHAcBxnCcQmbHAcWA4jiMx5HH8y1ZUsv7VOyqwsqaqnZVZXv8ASnLlmxvTKPBNSXihCSxDKZf3qdoWmuFTSpsqFj9Z0yMokCHtnV6Qqfyt/lhBUNmf+1i8XsQqhZTc6LBJNFn9qT+6p1XqXK6FSr1K75rpYqWXOrTgxOnIjWkTl0s7M6rFC/k4EWlvGBSXp/MP9cVcqRDLLc8VSOkIsdUJLrgiC6mnzGnGC/FoitpE01Kwso0yIRYLuF1vN6q1+M6rPQVP5G9Vvx6zPcveLNWGf+kKrWKl46BzSq3+1LyVegVEGkamx03g2dSvUvmL5YqWXOqRA9hlkZKGu/3CDJy4MiYWyIr6xaRlRYObeFkTnWGlzLiM2HBDAtLeLUomZnsNyP8A4PNSzKnf0uJMJaFuXh4R4lMRMtS7tcbkiE8s73G8zENJU/Zxi1KH6gu2JTSaoqfgnJLKbbEUSTuJZSMxU0fizqtdBfGyyoJNRet7Fgy54ZP6Qqb5ZjODxizVr7q8itVOnsWE42UnhdVc6ld810tfJLRFmi4/2O6n7FfIELvQydobJUsSth6UGSQNjiHCFGrjRUWabcF6zeNhbpuSHEyWLEipulrql2JPbMgvIlu32biLV9sG8lCcP0cErc5EQ3MjDQ65lbdEYn/Yaf8A7GQ/6Q9xd3/wySohuP8Ak1IbkNyVuStyG6ER/WZJqjkRyI5EcxudAt5HCOQhuQ3IvOJNEkk4W1aX570PD9HIsVgz/wAhVCxEksfALdVv9qV1XpFToFRJcpvC4VNzFTq+a+KgQIEdyG5DcRcJRAgQ3IbiJQkIECBDcVAqFmQIbnMcw03EJsm1LvBqFCdHNdhL1PB3OchznOQRECPJ2HA8IiTaDmc2iv8ACG2DLVj+T+TuhbkwpnMIcBzSe8kVjN2ExY3Z6CWJl/Ytnu4FzGZHsWvdnBihxC7Kxm0pVT2cgtqiRZMNxFkaVWwBVWEsFtjg4aW6iXpFjkkR6BuS1EhRHBpdisUJmhPdHHh8J2fYharCHP2Q3+xBf/Qh/wB8JEs7zRC/9BLCDnHKLu90Ib9UPS8D9kfui960ICJZJ9Ef8R+iG43EtYihO1HAOAcP7ITyfZBZLDInEckluOM7DsFG6ZDZnA/oyZDOBiacpyYBtPKcDBcI4RCWZujkIENyUPmzwJRJOGWBUtm7JJo1k/L4wr+REgRIkBMsgRIkSIiUJCI0t2hckcAiCAROA4DgI7GYyOxEjscRxCLIgQ2IkNiGw02FUEEEEEGjCBrDZ7DWJh84XCxSy6qnKizpf6NNLsMzK+BjOpsQ3/w1Oqc2km3ZCdu8jnOr8rcVCaayPG1eDq9YVNtS9D3V6QsMhi4uYsWMYeIWCCCCCBPeEEYIEigjEgIhAjsR2OA4DZCXY4COxxHFgk4YkCJFCCBDk7CK1eFEsbsdmdmZ2Ee/yXDwqlTRVoY5t7UZhvJ9kGp7yHeWSVYFtLLuObE54NV2IcQ6naoXQmTqyoLfg5DOR34Q04UOSF0sVV9cfYUUUMoTgy1tWSl3XFTd00tSy3QtFPEZ2yWeB4UWNbL/AE2aG7YsGorzH5PY2Z42qzrFT6Qvjp8lQ/iwmi4WU3uixVq7qVcL462nPwGzd4zjr+bwjwKk86pgkdLyFF6vBbmxJRtQVqQtLVS0InhDaEgRMZhnOeF0ZApnIrKlllLiBwUxa4Ry4khszBdLXVL+DDTmnGWTeBpWT5Dq8RVZQIW2FlChoHBBkJ3PB1WdFXrCp9HCaPACZKJRKwS+gRFF+p4RYq1d1Kqs9CptqW0owlSxL7KtfzXq0ruqdVASk7iSWRlsSthWmiJMxYW0pIzcI8YDw4i2G4IpFwVLLaYDREyxWFlEkG+Lp4lL+TTebMsoyI4zedN/TV6lXp/IT16lzNU+sMVHi6IEhMnQVQtVN7osVWvupAqbPQvjr1Ri1K6hYl8tpZq/1rLCEN6BpMtAk1FsspeCX3BGWYlDA0smKpb/AH5A0OWuqnz+Ssj7JJW5K3G1uStx1OayMW4chyErcncQ+gcVlmQJW5K3JW5CNKJRJJI2Zek5EStyVuQ3Ibil/Ilbk0P4RYSThAn+S17UKpWqnxixS68Z6rYqqpvfLeRVq+awtkk0f6k4SSSPkMSSTg7FlUmSSSUXYZ0m5DchuQ3OYTuIOY5Dkxxy2BDZjVajuJbxFZZBFEaHCTtJ2Injh0252O5GE0KN+mI0N39kN2dglyzgcZxnGcRIy6Dgx24DhFK3QcGKXDgE5Y0HGcZxYbjEFl0HEOAcfGRQnEcHnC7Ps5PsZOnPed32Q/6Dzz5SUz58CbcROKKub8kZU9SMgRs/RnUNo6Po7I3epwvoniNhuocKHllIeFlSoy+XAfDI7DsO4hsxq9GR0W85yEZi3DmOY5iO4iAkJRKJRJYMTRcqOw01K6rX8zsTyO52Jb4J7s0eMPcnudzuZYsp2o750F3rXwxiIIEcaa7CCJEiQwNZRYEEECZi0RT71Sqvbq/VxVf0CpeH1VetVdV3/i2LwbxYjQl3j4mr2oVN0swgggXN0LkIIIxEv2RgiQIFwgRInAR2GgiRIECBliXE7M7jy4PYluS3JbjyHOS3OYcg5BG4ScnIoSqFD1CW4j5J2LdWnqsspZq7+TYK1LM9Tqr5a6q9mpX1PZrdU3dYqbuipZ/lVfV/i4oYz0BIVFnXV7EKls5ZTe6LVWvurUKmwKqqbxZS7V1erWL5XavfidVpZSz2VO0VNgrVNffygeJSz3VK+p79X7eKkz6qm+hV69Vwqn9XFDGhfGKnwdXuQqpap8QsVXvurUKm2Km2peHypdmWVXO/8SdjN/fyO0sVLLu1Wiqwsqa/lCtdUsaqVV74qf2cfIL1H1/kn8vFXqVWddXqCqFip8QtVXvupX1WxU2Lsem6WGRMViStDcYmCO4sqeeyrX8zLnddVN4tUsvqaKrCxUs93yC+eBSz2ak8yqP5BMkyJWwhuOnnW/1I7nMcyOY5kInPoOEcyOdENyG405uglbkkkk4DKJJROJp4zh+XgVPixU+LrVUmhJ4ThmRKPELdXkVK+qyKmxd1b2D+2MlWF2azDUzFjLavMq1/M6BOPn1XCzS2NWhMnCcZshJKJJGgy+xEjucmByC5iJAjszozoNbKB0MqJpOwbiaLc7I7IgowinzznByCe4nuO4/oSCXA4ThFtCFl3/0OI4jjOI4BSQxq1+BwDFxnEKWQeLGuDCUyQg4ThEnTCVJLZO77ErG5S3Gukzi5+jMolmcXEsYK54jzWOURh0YArKeiJIG9yJ4k8SdiNaJ8RscY3sEYdBRWJYJxVhNa1Dz8nYiRQR2xHlOcSuw5hbxzHOcxCeYk3JRKJJLYmSThJYuy2m8Wn8wUQiOO5CLgp1eZ/iTEZxeolvO53O53EzD1IHY7HcS1hHFxXBD3I3EbjkGtxmMzkOYcg5BPcPMszud2dnQCYWNAgMrxEiQ2I4UCKQXMLkiCPiyv6xSksTlTh7eCo896qgSr5hKt7vJU/n4+WhWEBrk5c4SfjbGcFstkiMFiE4BwrkMZiEdYq5BBBAmcTIjBzhkW3dmcEykECBEiZ3YiRGTgBGQgRCQiQIYXmx++AkHZZjd2cjICAgkkzN4RuIJ8JswQkwn8S3M8M0dzudsKUmeHsj+BPXB/I+M/gnYvlvoHCJ92SNy1G/TZUMu1XLuqwtUsurZUvDDShBa4JcwzgeG5FQ1WkPymEilaIfYIZYg7PMUmZsVHmvVESQZaM/5SAS0J3FyHH8XGEk4ue01I7MhKc7DQmxWkkKZ1+wLa2hYkOaJDGiILi4659/8AUW9jJFIpLQ6ogyWScIRcwLJDaksERKk1fDG5NAY8vBci8ExnvF/NVHB8i5MmozD3isi50NxDwEyaLu2M0CkhImaExNY3BZR2KZniLViyvUtESBK4EsyqXhDuB4VhGNz7q1f4YbzVYoFghJY6hDeFhZpYruqWiuxhqHqId4xWjxsLFLxneCbyWRKFIy1ExOEPkh2yWG8QbOcjGjXCdHs2wQyyQcuZGG/FwVDwnbBir1eMI9A4APPscR2edDG+1+sbGI/kBXX/AAFZLjBBJYRIkrLFo/OxNE4a3UKSYDMVk4z5HDnRDl/Z+BpJDJAoMnW/mDXKRpvpej+oM/XYzhgIRKfzhLZ4Gs5wVVsWSQ1pBKFGEcc96raCSvAq5uTIpSWCGo7kbFlLZ9sGXU/kZ4axE4TgwRkiubwFmSINHZYT8/gl1BaFSQZiNLircHjoEzhYThq7q9RPzeZQ0dkIucLhErsVrNgkwpX5NMLKxDT1E5R8Dg6cHi5szsErtrhHWUR5EYrJwtLFLxjmoQ3kh4JRuZKJvN3IEsNbZFsJoEKVQb0MEsIJJLIuEeNRewISD9XjDCUrkbPQY1c2cbWEytDI267R4s8r0FjYliWFLAEnd0fg4qWv6sNzRxYa6IkkoFuYlktmVH5kIy4QSwaSxEu96ITWaxJDR6CfvsJSGJRhBAWuEw70Z83x9lYXNUNU3YqWMLGLMIpVR/sEOw07A0bJRgYJp1lDZAkJjp7LBwPUi64zzkoairvGQbkU6dXdXq+Z0h8sQSuCNU3eLIn2nFY+6uFI1ZeLHhsZDcMkzQc4VzLEhF12wtLFLxilkWXWWGXexOIyLBLZFDXY5k4MclrDEJCwZCZGCwJE5o8NiS0CG5KIbjQRNOr9HGOVHMcIm1ReVs/0cxzC3kNNGiG4giTclblgpJYMwiooFBKx8v6widqIf0ehU/t4omMPVEOZLascn9iq1gihT7WWKWhc3YsTFWnZD+iUbTBUSsTkMWY6e8DGNCNTkSjcDnWh07zdElDwTyOhBL4y+es+qHxrpi3BlHqCthq2Q2usGau6WLjexnkGVChWLshLZIiZ8YWDZCcZG8CgOd4E0OY5hb7iNF0CdlA1JloJg32xUewhF/sbHdEbiAjeMnnoS3ZJ6kt2d2RIL+hAiQOAgJg7OI4CJwEVoWWOAhsJCGxHYWKOxAgRIEo5IYxEgfcs/s7MluOSc4beeYW8OeJWvEtM5L/g7Ye6J3ongSKew/k6TgRxMA3mgQhPYkJDuJ8gyLENmQwoDSZAiJzHMcxyCrmpyECUSjIymQhUiEROY3AZMGFg0khjzCCiIFvJDGptL55sSjG7MiHmDu6tXdS+eXhJE7CRIlmYMnF7nZHYXNmRuILudiNxDiJBA5MNyCPcSe5Lc5ie5PcfMyiCB88dTcgRIHAQFQ7pCAmYTIQQQsfZV4FXhOr3qvLeqn/DarzHV57q8t6q/LxV6osIIIF8hIggggX6BclSDShiymLEgQHm+yBGoDsTm7JbktyR3ErURuJHIRvFyy8CjAu52MoRKBlBIJltIiITwJ4HAiRuo2owHEwrKtc6J84a8FS5hUsu7fIFyFUtpYr6r12Km8eFS614FXhOr2vVXkP1V5zq851ee6vJehU/m4FT64qpVSxTYyxVXvurVWKnQL4BGN4togjFBBBAlgR8qIqfELFV5NTtrqmwtpYqt3YVNw8Kl1rwKn4PkbyH6q9yryn6q8p1eYxU/k4q9IVPtFTfLVTc6Larn3VqrFTcFTZUuFtLLP8AFOupdLV1/hZWllLtWVW5CpuVJnuqV/VXlqvDdXmelXnOpftdXlMVPksVP5OKvSFS/kiym6W0uzLar6tVaqbgqbPkRltXl/4vcLXyG7sKmwtVLLX3Sz/Suqbx4NLL+9XgVPzqvGdXmuryKvZxWPksVPtip856xWCuPTFQz2IsVQsU2uoZfVrr1TehU+6pa61qrzsf/8QAKBABAAIBAgYCAgMBAQAAAAAAAQARIRAxIEFRYXGRgaGx8DDh8cHR/9oACAEBAAE/EP4GJFMfC8TyhhWhpsm9gamn3paDBjxzMqG/xCXLuOjtR4PEWMDE2dMfEgxmbg1BuImRYIPA6UOLxrehM3Ip64KiQ2f6w4sEOufQNQ6faxX4+lSpmJT0gld6ZnStFSXUr/E4b4y2QoPHDsnmpseDhv8AJn0kYEqKGEfvlzdmtSo7CWXd2zA+ghouXF7Ux8XgqMIw4an3MOFx4iEioEqVHXl0nAMtBGKGEvKbCMHS9FtcOxiwfxt2VoqJXidbjlLm9oGVCXGbkzM8FggiaGM2cIvMuL0Q056MNu5tJXAz6jUnBRsQ4TXmw4rHBc8m9jS+D7n5HF9jPqGohPt59DoQ0uiSFD0MJWpsuqmAdiHAq8+bDhuOBQcOQ9ZWDxFDSwxl71z6zh++n00rTCAi9yEBNg8LMtZNafJhDRSKmTXpCA4PvvDJRWgGmMAMGUMXhB4NDXcm1/I6M+Nhq5wZmoagwdXbQVw1cAWMvTPocFR2lNdWu7NpoGrE0VI1ohUXrmw8cLpQ8LwROC59N+Hi8+fczmyoal05RD42oioFo3tD6cIa0HeUPqYcF8fVNp4hpWmDdHNp44UCu1H50OB0l8pmR31vU5nzT6vhwfo5mvUaug68mOq8xD+NbfP0oaalT8BDQlafZZt4d+PGozp3tC74H1JtIcBymAH8jGJ5JmBN2C8yLc5RyS7ZIRZlLHqRPWBh1iNO5AWCCbGPQTuk7OPSzYLeHKSPWJ3SdwnZSo5hypDop2E7Kd4nQJtxAes7hO9O5K9Y0y5SMzuTuk7KdlGvZDqAMHK9hO1nYzsvc/0oJk7Skto5z/enS90/0p/tR/towtFJT1Ox9ztpTyTsvc7aCQQAZ/13Kd/ZOfg8wTZfklm3uh3RsemD7CHUncJ2EOpL02v6hhc5neJY7MvqJfUSwLIbgNsE6wSWTEYvgypx/wAIOuJ5sUpv3jqOlHkTIp00E1pEjW9BcBo0NgqLy9ZcWHMbh+ZseIwZiUSZgYvMvE4oM+HL0dBYnXPqdCDQ7M57Q1aT3mWdDW8fZAgQNfuOk1GbkeDR1vpTAaDX6k2kNWbHSfxOjPmDHpk7aUIhuEOSEGnTDIuK0SgJsRXUelGqxDpJ287advEeWCGG8OhOxFuUejK9iUNpRYS3cTs52s7CPTQeluxOrFMKwfZDkbsZ2MtymdcQLYx6BQIo22eNe5pK1T/Bm1DEMK2OkW39UD2g/wBdD+th/XRhIqmWn/KA7GLbidjP8ibKzAr/AOMWw+uL2IdKhtj8QCqxN7R3LAHwxTlmLbOxnYQsvNGMOK/JFXbO2h0UW3kSjGK1EHLrXZANobUrfdlnN7Yv/ZjIbFusVcepO+9phqvZFCn2IBkC+UYcqbusFkbObF+fwUU5+6L1eDvn+yndLd0CJfiif6SJSqPCgSapByWtlwy5l3tRUVM0BX3vMw0eW7Yy6zZqmG29gz9ghRlvUft8IldMvYQtjOItQIZgM4jRj2kRcRAje+RFzDHwga55KEGKgDFEa8ex0SFvC8gxmo3XiDBFUoqJyRG8c0oDm9TCra6dhh8QrFkof+bK6/Vicr6MOa/aC8/VhroniLZrDwynlb5nb+8o39jEG38wLU3N1lOyfKS3nQeeVANuMF8lg5wt3zzMeDqxFo2ww0iPWGNvudr7lP8AaHMr8w/2xqmoV9oc1+53HuPUz/QjVkQki5/eljbjGWiYvMSt8UcyWjf+nTYWSQv/AA9vg+gzfTca7JkzZsOwRXLPjEPu5pDc2Rilt2ID2gQgEpcs2RQOBZf5YcOybcrgYs/ENXS8s/BL0Nfr+J14IrHjWtVfh/iHE82/iRcoX9aTnCGosOrg9KMVuW0+ymHh6BA0w8iH1uH7eK/BqR0w4Kn0z8nAqVKl/wCri0SJCAt5R9Dhx82VfEm0QQLLn3Uy8CVKJUpGhHhB0XWj5cqVpRKI/QaMTExEmPk0VoNAU4StaJSbWAqBAJRKQrQECUlNCK0VKP42YfLCMoa8tpyhuYYVzkNPvQuEK2xBj1QgABsTZCKF0Y4WKigjo6KiPGXL4G7Bw0hs+OF0o4b4N6n1DhPsAyynjkTmBA4eZJHCg74/DwmKv2cIGYcOfWIkYGjI9VC/DgcFjypf4XCqSoNeJwmx6gfZDhsPh7BDgZ+13g1SIjKmn6bhHuz66PNQESKOn74r8HhdmO9O+B35PARZfpNDCZhGT56K4NyPBpZqbmghrvTbDhZH8rNloZcC3mK3NgiVy34aZpquU78miVubh8MRm2NL2VfBiMF+fR4NzTVFjejVyj6tFifUhwm5fQ4WfXQ4htcFtE6EeEnKJ0SUcQb7gQ4Nx0ia3pc/axhvw5n3w0DsaBA0wU6p82sHgFh13w14iMNbNc7Txw3011fDiW2c/wAUG+Ejlr+0ODgSNhh+pwpsOuNfEglxAacz74aDppBpiYGNY1KlaDFXny+FM/ZCME0cS8Nhw7sVEJdW9oODf8R2DDg2M/Mw2lcN8Szc+YaD0bKcj4hUzUNSI6TtO6IMWP1S4wD5RDJ4TPNUY68kHHDvT68RhpcR6iAANSaoOGwxeolkpouiXYU8oG9GfRy5el6Ko7XjQ0KRFthdSvEtE7SbclU5XL4VIHhw7x/DwGhvzfihoaoFdiFYeNDV0s/XaXqgpuKWeNFg62x70fmbTxL4Fy7x+DQ63F7fx6jRlHyfloVVhZfAn1CEEXLj9qK17NGKQKn38+s1RLWOB8QVwhhJ5egPAjxs2RliW9JlmPz4Sk9RGhA4DloIa/Sm1DgdnQP8jHTQJLJTRcdqKiQSWR1JSssipZKy63obE2tXymwDCsFs6hOWLEfLCtUNiDM1MRG8CAiNFAYpK2doMWFMLYnCDowEoeKEQi9O/FcoCREUjvMRgX8+BcGfQgPi4KlxNw31LR1kpYy5uOYUAXcWUFZUTpIdSU6ynWdwgl6Ysguw9ynUlOpOyh0UoAlr+KDuBCrIuAi0uIbglAt1yc5joS1yv02QHUgOpLNFBXupSabZTrF7wYMrbbygzciKQSXLlnnNnwx2CdJcvS3pGjdD8E2Y1LpY9dqVV4Tc6PzcWZ/r2RZ0HV+38oS4XUum5LLVMuUN0JteJUWoGDLj0cJfqdFJZp93PqY0l3aEJuTAHpGJa3lz06jLlnzoRnVMhT5nP7YscQ2aKGnLPVy4OAm9oCGu74goIcDtoP5anB1k72dxO/hIwOY6buuI9ToDKLq1gGwjXvl4XEHnYle7i0vvO/ndad66HXTfHFhQR5ZSjn9TvvUf6KVGU/E5ruoV749XO5i7hmlX9pldWkyH4CLwQquig/8A2lZ3OV3P9OKXR4pF/wBkEN3eYIF/W8xXA4QaCrtIfM8qHU90pbq/lKAKCkVYoG1q6ROX7sCKPuw5t/LCmoDtJTrSQdFDo52cQ5MC2MoJU5pxsKoHmy5wZdPTQhShRKsIOa75R23FAVcvWAAA9Z97ko2hT4VhNgpg5TnVitWYX3T2whKTR8vEZQzF7y3LEEqg8s2Z+0AvKxlhlL2Q5S8LChPySxWr+cwA4ndBZwmGZkhhtSJyPtT/AEcD/bgQH246xcGL7yg/7ZYkYDNNbf5CY2N4L2Sha9ky3J5R8Mwn4rJ1pO9hZd+Z0DnNPyE/wiNl/BSd/wCkEmeAhQQo5gx5X1TqGOVXmBVaQXfReypgAFKIaWrJL8+xP+tKUCr/ACgFpxyEh6mEKIf/AATAIVF/qzse7GxZIMirn/M/3YnMPPf5n+nKGMy56AOjj9TA7Wg/2xs9AEWAM/af6xpSfM8JDmHMQZTAM+wjPuiEzFFAREELxx/8pX+iB/qlyw+SPzhhB/8AJzH/AM4L/wCMuMPqUBaht/TOz6Q6XpPJ6l9Vwrjucif02W7X6/jdOJUrXcmzqkVNwU2bVDcjyNKlOkAgjoedbhKdUwwCAJuoEUrK0xx5QioVZbXJyZseNMAlz6PCBGAN4n1pZLDNn4lrTiMdlYvA18b8Q4ftoIwlmMUMEBNkElRnUgWDRBXQVXTeFRC3Vq6tEbq9DimpUug2QpjSxokq9AF1eF14IGTgXCoHOfpIkomNECrRU2nic+BV4j8kIcCrz/ijw4v+lYHCgT9aQl6VKj8QTYapKnvs9SlwrRQnucrN/QlQNAhy8T6Ohqkd+VAlaKaHC7NFaYmJTh1l2VAJUCYNmRAlSpUJaAgQEpoCtNHAE1A+5T+QwRH8EMbqTnAoBjJgXkLxN7xDW4s+5NmrRFQC9iNDxxJhbeOC0I+zO8yNtVQn12lQ1QhxPrRSQhoqsvEA/I4Po/xL0NX7UIRYLvAAA2DT69wyjkKgUENXTNH6V0qVqRuaKnLK0YS9kX+AlSpTMxWOhBY8SuBL5vwQ4RYftXi+D/yw4GAAtH/FGpbwp9f5m144COm75n4UqYR6JlgDyIPU4XZ8T6OqYMZlM/LhwXEzeyEojFYLNnigxw/Umw0vXaww4NkMrgdoy3z/ADC06QcOUfndVoiReVpqU19Rm94hw/chqSvpLqKEsGkPQQS6XhYs+F2hIrSubmx4gjtrcXTb4fqReyoe6OxctgxL/wBIFNV6344n7kXCFb016eESn7e2c+AiJm9QNU0MVLdk+gR4Ppzb8Gt6Y+X8XAIs/VdM58OQ3/mhw/r+iHDavx+ZtPGjrkcCvERSVcqaMLOqfR61KhLSrGtYQAmHk6GlSo7/AAQYwrpaHHlNkvQ1ho4Rh0HA7TdCGvKb3yw2/kYw7g4DrfndaiTGDK6hATEruMQ0dGbXnUwBUQqQ09QAbHAxg/Xh23Egxg8+kogWbu0prL1XgYb5OHFu0z8BM+zq2Z6+WACE5QOxB9cBpUZwyNL4PHCqs/uYaGrpelfnW0V0c00VNp40uXp9I/JNvxw/b/FNvCnb+ghw7/6YxN8LT9rCHBcpk7fmbOEjzI9A5SoaVAZdrR+pBgwdNyZrq4IE+1hwul4gypUrXDESFwYTdmRDQ02MKQ4Nmk4GZr5YfyM+phL1rS2vngxGCDgWLPlxNsJPAsWC16cC9KvBLl7NB0uWQZDhrT1Ud+FwEuA8dl+oMGXKSyG+OlICXLgnWUe0X6h0kr1h0E7SdtCQBf4yy9aSHUJ2U7xDrEekVj8wfknaTuE7ks6yvriougOCWdZZ1JZLOsLEbH5lZhsTuSnWWdZSNFsv4oiXLlIrYjjnGRP3M3Mvgz/ewl5hF6LmX7WEN9Ll6Wauv5TYarpHykPpaGv6zpFa7LCtAcFwTJTNjMNdIEqfeaDpcYS5MGVK12S2cL9UWHDshKHBsivS9Wb/ADQ/lvh3rKDZBrkJ20Q2gtyZT2mRRznZnXI9CbAnzEzVhTxCbs8G3emOcKYdYO8s+4NkETym8elnbS3RWUo4ToCZ+T5n+9H+6mblSxUExCpCs3yxfVJKr5aSlUo1Oh6I9F6na+p23qfuJmqgQrg0A1ymXHrJ1oLUhhApCj/tLlsvksMdihziUgFJZJsXtS3d9mUQNKtWGr00FpTROrlmWlU+53Xtnce2GIwAfFMNsY7RYAgZQZyDctBWj7Bpnay/knJQkOi+ybqVmbRTy5E3RJsgwPk9sV5YsVX2xEAo0sDmkVyiG2E5M+OP5ggS7eXFVryxxNvS2HQfbGYHHPXkgPJ9sSU/ZMNX7pu87unS9+Wu3mLbBC9j3VUqwK0Ia8MpNaqB+Z/pSpK2HL1BCohB0/bAuZF7D6h/VkZYw2MdZuUM/wA4lR/wJ3nonWXolGxpMYIlfqkD7R79edEhMF5Y68rW7nxhM01zo6w2XUdIlwiNl89QCbnm4ZZa+GMJnSnQSKxHkWl/2WWGPZChm3zG5XthqFPMLcr4g/vJV/7Q6CGj/wBwSlresxf+pVuz5IJoWX5+OCmZ3K3sgREXMPiH+aIP/OX/APnCT3BADPqn+bMX/GXxXHP1BWizEIeJWXn1BGremXbR3ZTaX1Nwv1BdXZOgaM3GDpYdHOwg+wY9PBqAtYdP/LH4kAiSpUqYmCrlRCJ7iwLHly9WInpBTOU7QJSUSohCs8wCVKiEK1JsYOIFm95dKlSoCGAdmEolSoOfBYS7NJoI1xth6x0VCMNuTStLnZpTOBskxK1j4xh6/wBwSVp9X+OJDkmR4hgY+MqYz9dB60Y8qhWd/fq9B1Nhf+OGlzHJldC+bBiUy5jtlGbr+UvOjEARzWiX4zqJlUp6vzoeBJVvR+Zt0IXbKX5rUDHOSIQrEp+3s0QIvogxY1duJ1Bgcx0Fn1/BlWt52pX1dVKfCJFe8w64k6j9eLBfvhLifrcRXMdvLOxH7EqWNk+d5y1YJDbjmgVgWX8WnQAgLE5MEGYzsr7E6DAgweNFDUHyJ6slJUqVBhhuAVL0qJpRTQAQ0ORAQJUpEQnqhKIBEJSUljZEghKMMAlZTpEVMsD0naJ2CdqNGxLm3OHQI9JOy9TtpSbIHAby/kim5h/Hh8MHh2xXfnRgZsi+Xs5fDDgYsnmEdDAHJXYiNX07BOsplNnCxPQwNWElYkUiWaSAnAF3ROJ3q6XIeQQucAfJg1PL4u8LzR5DwV+B+OGpaqDRhaDRGkOm6rgnjRlVoA3tzIuowM9w3ZiH+NhY8Fz7fszZ033gfBL6lBNh0nY5KmW/e2QNCckyoRR3vJzLhaoFYhQ8fmGlOos+/wCDRUF6wpIsO4GdHedJRfJlmX7tmlRVeTpAbuMNYO+FaKxreLLvVVLPNQdBbe+F0gEbABqqoJjhscGHRbERyFBhJh/g8GixHuM3ERbFMvKqpCKp2fmhutom/Msx2VsF4ZbF0lviNYsGOvIi9CENdjLMK0WtCYzESoanf2NFxZBy7jolsIcH1JsJSENFibocDNz5hrcdp9iGh/G6XtgcOzhBCjc4URKPiHAzcanJExbN5kknPoQgy5myZ/KVpejoDgUCHuev+aLLbs8aPBua2M2Qq3kB1SfRQurDamFAFexyI6MCK8z+OLr9Bk6/NDAH/t6tbB8nwotsT8GCCzm5wgZsm06WXKiq+5w5BLWUy6Re9fsNTSpnH7fMBzDjAm8GbW4KeqMPMfmExwfc/LgEg1tMllsY6H64Qlb2NpQrzHypjoLy0VFWVA5lexDK/ALa2simkHaZx1Ak/oIcOR/bCAhsF8vBPFUvXkuihCBAGVYmcJRLZ/Jy6YDWQonFZVVNmwiOn7Q+TCmw6wF3zr7Mq3Okrev77vRbAYBcxXw/l0DDWo7cAYy0vngqECUSpvEEYSoTMlt4hsNK0GO03Q4Gb3hZ91qcVn8Ol6bI7hUJVG7dRg7nZLYikadg7xLlXAsZNmu/CJQhheegtA6sXvIcBaY87Y9yNCTBoXgOHuDqROLnbVVcd+FHlvlyVPTF4dDg6Hvys4m+zh2k7k872SoYJwwEWMBsD5qnIliTKbwSorOQsbcAN6+wZ1lyhEZvkllqh8RYvcvZnN07CKAn3HX2pCtlt8E3MFn1/JxWx/uOBu3/AAq70A/v2QQoDN2UwwDzdsdoFovRWeJq0cYIZxWAz53TDposuVLv3PEp+1shtF9A/KOgTkWoorOggJbFeF6BqWn7YdTrB0WKe4WMUVl3QH3pTJA9+VGSGhQFBL7JyUDGdhbS7lbdRHb1uZQJQhWXuwhqzDSY3gSoSJXKEy0FmuNBJccoseXE3+A6cpvhwLiPL54vsv4GHC/sRcOyb4miIrflqzExKNE5kqcSzZnaEWV1RaKjHStZm3VLgQ5yPEZWkzf6JulWMYi7hojfF7WQOgBsRcQNO8WwmRFoC/GjL13WrwRnxoGpB/ZOouQQgapXQly+BkISg+gGEYAbBgiOsegh+u8CFXUgVdhs5IgdNk7PRneIdZAPRbUGAUSxgOs26w/qDpfc7KHRTsJ23uAwS2j0m7QYHrOsJV4UzcpWYtzIbJ/pMmG6ur5SzolHMgvJO4R9LVj9zqid4nZTvSnWHiC/+SdGlesp1iJcTg6/wG4S5cdahF+Ir9/jISc9mDQ1YD9sIMWorq3P0zNkIS5cx8JPrGlghe+v2c+k4kfFRglQNBKSpU2hDswaJAC2EglzMCW2HB9CbSGlSo0GLMOELeeFj9qH8v5SBRhlejE9xl3X1PJHpvqcrYroVdZ5/URKGDEvc2xXNgXW92OujCGjQT6zyep5pR5wex3nZYE5xKyvMslAiX/wgbyXupUlX+nRr5RYe5CZ7iXKAw9Im7AuPIfudb7RXaB23bSn+yjyJPIhbOVjbBtDiiHibNE+IBv9Jtr8CX1ryIufdjlL6AghIzv/AHz9TA/3y/ru85dlH3P0LAoMHuzvfabC/bD8k5emFG3S1smtN1pK1UNXnStHsx/7Qrvim0Uh0kz3S4uqiBESvxpvFNFGLlbeG+wXK+AFKzmUDk6MrKG53C8EWEY5wMsQSvzy/cxerE7SYq2wGpCWn9aCKroG67X5Z+5Y9T2QFq5DL1E3HDwoylKgdo6CD/qVqwAL5ErsYo36tSqYPxARXzXGhvt2sBti6Ss9IQ6ruf4R2ELlVdKICu/ohkzHwQDdPwR7VoTAQ5PYTsIodsbn5Yg5vXCwo8Q1VhGGE5fVPOC3OHzD+4YmQ3pSRsMQ31/ZlO3uhzJq+X3BiV9wY4JbnO49If3Ep/8AaErssOossOZE/wAMSQP9HH+1TG5DpA96fDEc30xPKvTLHC9Qlrh2ZVyyrckxbIdHKuSVUYSisP7yH9xP9+f6kWNJ8wS284Vf9p/rQf8A9J/rR5Q9wNwIP7KHSe5/pR5CR6kHcDKFOyf6X8isT4wSsrK9JXpEQ2lSpSVlOkTAqhdNhcq5SspO1CqFTETA9JQICBWiqyskFIpzkrxKSp7vSQhKlQFoUiKlaUTY1GtKlDwwnxmpw7WpL/I4tr+sOh2dZi5ZWu7lfSXo61ca0D+2E56MGKWzsHNOcw6AFn1W7pcvRUn9aQZfA4w4S7uYdF5REBmnpE26W+U6un7/AKGEJRKgSx/fCBW2VpD3ILFn+mZsgaVoZjBpRKQIL86D1kqVFCNugDbu/MqVKIEQYfbKgStFYUqypCWcidqDsQFEr0nYIdInZQLwiww0arki2/ohyPRGjbDLjnBuSdnO1nax6OWRTeX5rLdzOwj0+iEJDmdjOy/k3vJHfgNHXZpBwMEhly9GPKYDxrWmyfl1db/PCVwYvxDvdNHR0tp0vpWpDRySITTfAgBVgW6kQpQSspJXirq3ANZlZqiohBly9K/v5MUHgyHze5egy9P1vRqxjDDlhGbC6ivCLH754dQO/wAWR+nvDgWJ8n59BpUog/X5wNNkWI3HV/3ubOF002/HDj50x8cTFPAaXlL4cTA8O34hKiQslzEV1myHB9SbTguook3vniGl5hws+SHC/wAGfmIvUaOuyfdhwLibdNhlhcuXL0rYwc2r4IvPI76XLixEGOVpwOi9sIaXFR5CIB5Zu+ODgy2CEOdN1hIzFHuhnRCVllf3MFPjeHQQMBPquDu0pUd2Z+924aZyDMCoVEuZwdGUOBYur/EDRAKtBASCJYmRjHXUQgwZcTDDmy9sAzQPBDmNmGDredFUZfCVq/d0c+DOaOEXU7L98cSENErHTZjTbN/locP7XNvCbCfW4TVfNKw6Q1NDl5QhpUqGpDQ1vXQNKjFz5aAw4EuJcvMOBaJveYcP3v5L1/1jifd1vVbCkcMcOVggmyYgZQhti8ifHkizekNhpA4AcGSm36cwCgdOjr9yEKsCGGU9ZS0TlYTCBN2KNy4SDLRAckUrU5wIjZ2qVqD1nNIHpiBfkEFAK589F7k+k4EuZKk4RuoHlZZLgSnHVIQlyuiGAhecyfVZly+D7SBxoCCWJTLQvPs36QaAiWJHj9edUgjoc2KOrgth1YPUplmWUxpFebYQ1rSwVJtB4G4f3eFcf6vOHCil5/nnPhSjyX0wYQiy5s/rhouLEa6Tz/tc2cX2PGqCKl3yIK8Ohqw0eSEOC0hw7fibNCGgkZkhA6POZ1wjaAt5hLhoz7UOHDzw/kILmr8JwsXt0OAX5YwiQ2EbAT1ZQ9w3Kxe6YETGAnquEYlwc2ZoX0j0ausFsM/0o/30LiweUuNy82OU0FD5TDGhzlMOrKhtGy181ioFR3YCFEuXoF8MXpS9DQihlRKumP5xMW5vygvyhExNeuUwEyPRwZcuUlzPKYa+LQr2Q/spTye4wskTTIVcc2MWlpKgBX0oLcJ02TPGMp5PKCRhzeb5nZQxhOZ4g6KZdnudpO2n+pMTS5i4jfM/0p/pT/anQPuAhBhfTHmPdEGkvLBNi/MR5Pc7P3NmsN6YrmSnUlJTrLmf6OYQ4LqFKZ8EEMS4oRUP2w0LHJKtDg/W4tK1+lPpRJFJawIX5kOXO0OBm55QhwI+eENbjxjZDgOPObdKmSEV+CbTifk0MHRZ9p4h98P4Xg+jB5eU78evOynbRr2Tv4lQ65O5O4Tto9NC5+co4Z3SdyPXI9HLrM2c2ncj007CCcsp7IvqZnRIfR8ovYJhJRhAySkiC+rKjZpnQZipfUKCPOdn0ifL1ghf0z/Al3/jFAwDCi5CG4jy/djy7fMeV8zFMSkWFhUGYz27fxDbL+InMa8TBHIN0/EaN2jHVYt/6RAWS+VgfFv/ANEHsVbwLNhXORANbOsLlF8yA1bkfUOhmXbAtho328Q5rqdAW6eWfknmB0I6BO0leKwuPn2GXlUqBN1gWaRfcwDki+Rr9sHdAMWbkBsY7pzZAjVSvuMNhC+A1KQAihSKjtgMdwI35YkwtTBU9p9s7j2x5P2QBDhuq84WufZFd/chSSJRv7MEOPdKWvvTAtfvQ5HsnRk2f8yH9YRCudsN0gwD1EeSvSYH4U/cZkMfWPBhQwVObHyE31Lozl5UPT8sA5nwxYvrEbjHOydd/lgB/wBJ1/dK9pMiIqAkNKOvwzm3EOd0tokxzuZcg3EBetRgDU51P8+WNRG6AvIhzB8k2BfkYjv9GftGVtMGKeUCMkgu0h+Sf7k/0JfK7xIYw6Cd0nZTvEEwNodAss5ynWUikWkre/OIikElkUgo9IBKyyXptEi9a/h+4jE7IrynZnaj04qZIcwh0p2J25XsTPtNsc4IwRhtA8sD2b5l8D2Soanb0GCtATNkFuIcuL9zTdpKOSCcDeCGxpuyTtp2UKNRySJ6SvSViOkYqvAyrhAtqywFsGXJyFQBIDJCfASpUqBAVAGgrgbdw/MMRVbuUe9gLzgIg6mlmGbaYjsV35PEJlIeB2qBXwR2kKB5Dk4/qN62ENKEeZP2vWXDhiMvR0dHC2IR8nDVgxAYg12jBZ/XMowIogRgTwz60qBKSiA+ZCfGSkpqOErvylQEpKStQvkgOkrKdJTpOwSlxyh0J287adpO1lQKbzp0zXSX7iPRTtoEUIs2lYPuS/r7h35yFxjknlj1/adz2hsPZKpu+4DyQBss82Jeb3K/2TD/ANIgSuJSbs8mt/wMqP0GfTcRyeOF73LMWDfKUbZ1aZFe55j8gVQ6TtYneBUVvEeJs6VqJsO0DRC89mjICeYlQcw4Gb0V/J4GNuxS9ghbtcBO35rnFBrmss2u6pmFUOohPQIBN2qfXIcDtGvl8LOeTCYN5zekFI0pZ3FWYxgjdoIefO3+OIFinAbeyD8wRROVSZ1NLYdlJjXC3ax0/fdYh603YjGbQt6vPQL7+gRza9H5ILH9bhCVpU6mY4Xt68GqVKBEasqYnr+bgdKi/pcEIvlLZUCCN6eIHB9tLwIbasX2cX2obcOz40HBsPM2cO7NmlaELZKXLlwjFrRwy4aiIcDrfCz7iP0pcvS4wvCNTRIWVS8Adc8xClla6YNXyIvAHEGGgJuTPhrhjQaPKGcxssb2ixXKI215LjDc5XMlosD3Oml6XNrPzvDUl2CIs6cYgCLrl0IuG5ljO9ME+nPouHYzF80OHOMj1S5chYaeYNQ7strMN1P+UGXwIAeYHpYaXrsesBl6AKgt3dP3XWGqqQ2WXUHCfazFUEIcIThrfFG+EYDVIcXXXLvRkiXBP1YIRUrUbDxwj2J9eENWDPk0OA+6G0OFNkODa8zZw7s2kJUqMIhEt4aGgxGG6wMuDDQYG0r+B4PqR+qEdWHL1HCnVIoYBbcADuCLEeC+dCEaS2D4lFTZ0XS5QqGxFxAc0gsgbDAABQRwQr7aKou1gzZw7Z+bhJTZKYiZi9QS8JswwUHUzDy7Codp9Jw7IKfJx5DRJiV6hLfGzD4hSXczwXPnxOHbxU2dq+mXLl6g/U34mGXORw2eH+HQQjGb4VyhqGlTGOESVqaqT/eHhdN2n0uH76bbtKhqxl+TiSaQ4c2Q4Np5mzgqYQ2kNamzUDVjHsupFomb/MyfjSnCOZ04gweZs0s3CHo+iFuXAFhDeK/m8Khu8SnOkCQuNNiRBYGAobOFIMwflxIB6jqypUuvQjt+zS9VlmguXL1DW5ZBAJvb1A9Z2E7CC5IV7Ihqgx6Z0WdrOx9ztp2kSKuy+odlFZi53CFWydtHppczmXth1Cd4lOpK9SV6xAwz+6nb+520R3PuC8nub5MxOkgeCh+dFiXUpKMYXalgQhrm3RPvUNSpr9mI1XQ34J9bQdfuIld6aGqotnP5ZcOAhIcH0ptg6GioL6zbw/QmwhwO2kJXAPcmZegwcQbKGh/HvRBCkpLNFINWkiyI1AkEJSIiZZGWi+7L1U6xSAPjA1pp1ncJsAYMJHmBOqJ207aIcko7IIbecq5NEjAjhiPWYyatCRzRhhjQ5Ru9wIUs3uAQtA3j0s7TTe3CsbqG9oc0DmPqV043dPid96gnLYNoqLuful/7J/roCJ9sDcPtE8N1vUwVUOh0rdtlPLBDXIy02zsJ2U7eXbmFUGSnbk6onZRXcyswIkbCRTtjCFAa4QhqgZKH9dMdYoBgoiptnIrMDJZJaSC2K/KY9n2wIo+yZ/8ApjgGEZTLs38URu+m0twHYhwwdtkXA+6UyoSywIUXhl1UXqKpJ5PoI9b6RIt3yje4chvqkSgSyXxCrEP9Wc2NmxADc8x3J5D6MAaT7hDdQDnUEKSdt7if95+hnWXuLOxlA2Xl5YwoFwOn/ECT6JmCO7KDn6h3vUE5ugvihb3Z0KHTw6advOym9jadQQ60OoQ6kp1jKeYVGYCCOtXwRy5cvRltEJB4KnllRJWgwfWQ2hD+Pem5ktZbqluqZt0te7GyRiswLqxXVHqIrqlgq0oTbLzl2nm9y/ViurBdWIC2ht+YZ3bPNjfmgR3Y4bwIJVjrQCGkGKI9OdmdiPQlfZKz5nbnbh0J2ojpCoqB0lOkrKQEL4oPSQgCUSohTGPgUqUStGJafvPEsHf8IHD9f+UOFP6GzxPMR1uXoq8+JeDqOC9KfE/KDqV0HIDRcOP41rbH+rCJKJUon7neGiVKiQIb8MJWUSspKQXzoCnaVhNYiU6QR80rATskOlO1AbEOmTsE7ROw0RhDoynlCZLtwMXmw5i/c8mZ833P2MEG6ZmWYN2LNlDqJ3kOsi2yyjmh1erB0ZV87ELMeXDuZ3s7j1Opwv27nVY8tnxMfxnKYeZ4lpe6Do6M3JseNKlaZkyOEZWENK1oRtcO2Oj54LnKfm8Srwz6LhYafI0NV0Q4U8UN+D+HhVMe8H08QWZxVE9Fhw0z9NemHCPR/LgGhuNXxEFzTgqdL9niUTdiDBly4686P0aGrHb5NDgHQHAw8U2aBrtPM26HGI0dKbSBCVAjKr86USpWn4ibNTR/g3oaHl4L14aOjDbmxwvGkvh/L4TMlNrxw7JkefgqMxmLw8p0n0HE/L0JcvTfwS9WfXk4cO9/2YS+CztN9MNb0oHrAeFo98jU0y8f8Oo1Z8f8tCOhbmVV/kwYhq6TNTT9bvNutaC5fU4a/Mn0tCOiTHyOFhpDStB6JthDVAPMeNB1SeKYkuXLlx+qPCXLly5cVTDjhEA7ENpfC8e5GWd3Fh4GEvg3Zknbh2cYMjgdBYeOHZNnnwsp87DhR8UfpakubGWvYocO70k4GbzoaTL0J+53w24c+wfwy9LlwZUfUfhhw5tnaRqaft9oaGjGnu+0IR0S5i/osSDCEdfjFg6EyH65mziirxaGv2nFGP3oMNXTkOD6U2Q1Y/XmDguor8M2IrXQY327ZhJRyPZgOwR14Jsy9A0cTxKDbh5vYhFzwvAaMWJj5vFc+XiOC9MvgGJ97S4aMcTHh359bW9NvFnRnAzPwz6TgubIcLgL0t6W/wBw1UiwjwQFbynWWN0jcV7IdFEE3C+07KdjBdvdKOX3LP8A2mLHH4mFlZPM/wBaf7UV5IDyQqIx+JhyxK9SAlOspGPYKwqwyvUneJSXOq2/50rJei4h838opetzIe56GKDLl6Vjjoasv5Jt1ZccMSLttLjVCnOiARLsLPtJm/Y0Nbn2cIcLIcH1JthpcWZFAwcFz6UNBDTOYMG2lFwGEhpsWD1Ta0NWE+XDgqY+EhE4XR4F0IA9FBlxhZc3PcQ1HT6Efp0uWS5imC7ks0slxqIPNAlNESyUtAfBKdZ3pWV6znEgtxmEec7KPRw6kaYQDYYKXmeeMCsHvwtPbeE7IjJ0IeSYc8QyoIShgbon9KV/WlJt9Q5n1lnN6hlY8yGSBzZP9zBjb7YDr7T2OdDLuU7GPQQPLBkGU+0vMmY6rAHBJlusDdsYABUfFLC9aEToGFe2L3ES2lgqvk/iNOyL1ZORU/csOn9ypqXV9QBgjZdbhBliTJiHw70fUSVb3Kar7pYNlLjI2CUb7zQuQXzPZhgHth/bzaftmbHu0cqI7fYyiVFW5XL9I8j6xrsPU7ZRRzhWx8ks49EOpG1pxtYbkr4Ir4CBAWeWDbNeYhCupZBI7SPVwVbpeKipaom6dojZdBXidBSjr6nefUOo0llu7SGkbsJ2swYEDR3MWbJ3id4lesp1jydoVQGi5TSnhB0xMRkNiA7OOSEQgB1o5qZZ9CYYRTQ0uYn38Nb0X0GtfxM2THZISE5RK6EqCdGW7sodSVKpVyTzQ6Yr8x0UdO+aUeRbnJ04dWSkFZUGpzL1ul6qV5HezyZSOWfEowl3XSC6zeVmC0rnO1O1Dop2pSGFXOBlYCU6REE8EH4iUlJRKjtGPyStHVEpoDJRahkNks0w8ccuF+26+GyG5zK7FJMp93h5sXgrX+6UvQdSPYk20KlkuOi6/wDDoIHeEpTqwwAjzH2YXABWU0raCYhmtLCmBSKF21Lz3FxFaAlPb0RDTgQCUSoT3IMaKOhMAiFJWUhc1uQzBRbA+FhkATsR6Wh2Ib5s7EAilallNo5RxqhBliUdp2J2IojpeadWWObFvNLG69yzAn5jiy3lEooFJ66d1AOaZo0hAyncS7ZEFkFUTlC2hZybAwG24mVpldD1PIl0KZh3ken0yxz0kuQuptUEmZ6X8LerM46lEoiDKEwS2vUtRbOcewypWu/HY4dk+jwsx8aG0qVq6c+rK4NkV+ThqfblOGzO1QUDyIoBBeiYgBFpwzAiDJ5pU03eYI6MXWgh+cvog6HLsxEm6Vc9JCDDAYSv7AYHW+AhaFltyHQh7aLtK7ZyK6BNmwKhWvNwAvyam/L/AClkYNVJdf8AiAAb9oAomLaNDeBc5FxdeoATaKXAPWbodbMLAg4SBt4iVbOsaVI1nynIAIPIM0nSE9LkEm2YDLjMI6947ooD2wsp4ImgYFE5EecSB2rK6dp8oQpaQs7xo+wq8xamg0ZelX7N4sS4S9KvBMGbXjBbV2EgRWXiEAEfvQQaBnQkXoz7WGmZLgUBAHrCTIgNDRjwhtAFrLoNsdStFKA6XPsTYRl8MxYsusQhIE2khhDX6EF0yLInW2Beiox35EDSiVCDY9AlEaP5HbgpjSpDy/MzVc0uMHxakiAHNjU403+AHAw1UheAlX7WgRZkOxviWaCPpaumyY/DoVS2tibP7TuSsxAR6chywWvJodJv2hSHm3od3pOL1LMwsCNibgDCIwpS2s2xkaCtObBCsqie2rXrTfadPFbqxmYBqgy42zSyfmIrYICGiUz1lS6oly4uB1kXUSJNqfSb/jfoCWMLMfkzCYgCwdbg10FBr8jflDUMY3Ly/wCItFJVHpcHkZKCWJZAOQjq3QoMThjBk/P2oVBY7kWhTaVpoMCYJhRmfBWSGETNFs9+COD5qWpym1patjGrav4YtSy4uXrshNCCv/og2xOiAuEY2NAnYcCNhoSpUxhdLPCCO82OcKsIXkgUbEYCOxHa1jdwNLgQ0Z7vCLQVlisMDd2Ck1CB0XATFHPeQa2pgyggCOjSGvHHwlF7Ts8oGABB1aFByE2Gly5cfohaOxYlxhY8+aDpeo14kIf42O0uTkuMwvRQtDC0NmZVSgrDQrdGLRSVSdiOjenL7srgdoMFolCm4YczlvOUSZdtCR5jaMEbFzYlyq3GBkFrMFFaoyocp9Lh2ad2gVtrlDGwadlgQpFuygU/Lpe/b4IAADQUBYbytc2xMZf8iOzPDWlAAEtWb1D2gxjw2SO3uTFAgssisXrisbUD+ZPmFzlDqsJvbm9Sp20eF4QrX3oGNU5FML2gHVf+WEqkCQa/td0CZgQjGB3se4KJibQDjDtBAKCbECQhSdGEKwX0Eywg8iXCwZIaBM1wJKAogyRbBUTFDDemN9LQoQA0Q7kA2JziMhxLo36JumFjxoz8aDHDl4NNAx0m9yveTQD4mNLiLUwxmbMJUWo0JsXNMWJuMIm82S5nGcNmOEhBg64nxHiKPKMOAjNktqCmZvAIol8wDLgmw4gdZzGY8+Bm7zy4MZbBl34EP5dk+6Q1r5BkYtgy5hYBB0NjLhYTTTYw+xwsBQWGZWHgoCVee1xluJnHRFNQYIwTahxLdcadGRMdTVwbYJcolRG7AGNLjc1kaXnOEYLQ0wUSoBi8QujAzrYa50OJYnopXuyDhoI6KFMKwLF+4mI8AW7sNaMYkEBbZ2E7xHop1JCuFFsFOPZP9KdhENwnLt8xjBzPhYh0cOj9zk/dKmQy7kjb0w/xOhTsogSZol4aF0zGotCmKIiYSd4gjLILbpBZOYRcaY0sd5UQsaBKhP0u6BjVNLHLUZXe6S7LHg4ZY9Eehrb4ZR8EpK03KjPMhYdIvVKho6Hs2q5hGHAJiQw2Y6MNo53kDVUGMFwXuuISmlQS2k3ZZu6QEEUYiQUmm4laVDGyehAIkI6Ap5EZzsYRhscDOfzEgaOn1jS/4XVibHcasIHuic3V5hC2oM2vEWKUpTci3g1Z02zZ5+FSr+FRLd8wAUTEYgyng5yjGzzKwIQa3eFjLQ6oxiWdZSFUrJeRU7pDzCBYQIPsYmZEojlAfOd6Zqt9RLkztMrB5IN3aBEtLIOenJ00VJp9Z5BJbg0bfUOZDLmjVis3p12H91Hq9kOs+41A3Iu3J2YdPSPRndZ+hADZDpJ2otuJywgsK3L1CjZDpoPkTtp202/t/wAxeLdydmdmVQ9LKz6hSS5nbYd2He9wULabvUCGH2nSe6bde+OiFUVmg7UQBC+W+NFOf1AXfXiHRMldm0I1vsj/AJI8n0Q8qbYXilnZlDYlM58K82SosK+YnBFkAbyqd7KOad5By3UySgl8GkHTZ1LgPWAQ8mAQw6s7CPSTt48oQ5I3w6SWbJDraQolsWocmpSFQ02/EOJeWBkN7IIcJ1ijJpR8oxh4FjMtBggQnFOgJb8mCBWBiGhtmS+sphGUAojAlRZv8kNElaKvGS4fyMsVHLOxGbqk7JOyS7pREXUuHpSB0o/4I4ZEK15p0TLnl+IFKREvGbOMTzZpg+adyMeTdHqYcymUjKKm6dzK3dO7j1lxzfL9WX6xXmgjmxFTO+hpWbk7EOknZgIgdJTpKdJXpoEeCB8JKSkA5SiIBK++USjSokJAkDSpUpENalTedP8AmDq6Wmg0Nag6qA0rWofX8UCBqR1+liCJrUomxiJiVKJRMfO/KENQICogVAlImUgV8IFEpKysDAgN8UpKSvSUnxqEpM1ExHSdqPRIdCYT5ovyhCkBoQqdqwY7o5BI66A80URVzYod/C3eB7RTtL3MzAmNCr/KBzFgnkhbtnOJfWS3zInKkTIYLFggHlHq+mgYG9ghloiKoRfOHPGnF2R7nJW+Y82fmFlVusXDnQls35/l+ugSpUqVAlsJUqVoCoZqlStRn8wNMaVLlNp41rTY6YSuAaTscLDNs4fpT6jhyI1fPo6s+g4rW8pEvh8HCsExwsD6/i4lf7mIcP7rpDBq6XuOWoXqb7T/AC1GuRwQ6Y/MmzQ1+pPqcL9TF6uFlfmQqVMSjWJUqVKgx8SlQCASpRBnzhxCYlEohr5ErUDQEAhKJtSiVKNCIcPmBKaAaC+UlEp/E6MWDsiix4IVp2NDV2i4pjE4dk2w1ZuT88zL4CLnaHAz6iDhvX2n0HAzYzfoctWfQwjK1+9hw7bsvriHwTG3BUGXo/jDhSB10xwYfq4hq6Vq7n1wTTDyfyhocfK02fGbSHAb8cNeLh+ymBhrcXE3XdDijgqbJNuhwTbK4NvyTbDUg9cOHDshrifYhEj/AAupjwfzxGx7M+m4UxNj4hrcZ9mHC6UyHjh3orHzwswb1OB0+7FwqvBHadTW9Nk3cOsZ8bipxRvOg8F6Wu5QXiErXBv1qGrpcvRvqXBly4x/q8uA6L9nlwBlwX2W/bQg6/eU2Q1ZR+reIpCGlxhHY1vT6zNmHAzc8sOKNDV18Zt0OBbTgqDHyQ6kJvTaQ4Ns2uFn134ho8F/wc/63htw/Tn1TTlq7T8ThZv+I3p9LV02T7TV02QX2Q4eXyfwgDwMZ+XAzcdsHEvQeCzBjLmUnlqxYn9XaGhr9v8AiG2rp9r8OARn6/pwGM+1+M2aOqSjn+VOUNSXPNv8EGxoafSn1OC59Jjs8Te8w4R9vF+CbSHB+fNsODY8OGaLYcLsz8ziXqfiGn//2Q==;" vertex="1" parent="1">
                    <mxGeometry width="1600" height="412" as="geometry"/>
                </mxCell>
            </root>
        </mxGraphModel>
    </diagram>
</mxfile>